<svg id="Livello_1" data-name="Livello 1" xmlns="http://www.w3.org/2000/svg" xmlns:xlink="http://www.w3.org/1999/xlink" viewBox="0 0 870.13 512.72"><defs><filter id="luminosity-noclip" x="456.04" y="-8576" width="123.43" height="32766" filterUnits="userSpaceOnUse" color-interpolation-filters="sRGB"><feFlood flood-color="#fff" result="bg"/><feBlend in="SourceGraphic" in2="bg"/></filter><mask id="mask" x="456.04" y="-8576" width="123.43" height="32766" maskUnits="userSpaceOnUse"><g style="filter:url(#luminosity-noclip)"/></mask><linearGradient id="_ÂÁ_Ï_ÌÌ_È_ËÂÌÚ_1" x1="517.76" y1="376.19" x2="517.76" y2="239.38" gradientUnits="userSpaceOnUse"><stop offset="0"/><stop offset="1" stop-color="#fff"/></linearGradient><filter id="luminosity-noclip-2" x="468.74" y="-8576" width="123.43" height="32766" filterUnits="userSpaceOnUse" color-interpolation-filters="sRGB"><feFlood flood-color="#fff" result="bg"/><feBlend in="SourceGraphic" in2="bg"/></filter><mask id="mask-2" x="468.74" y="-8576" width="123.43" height="32766" maskUnits="userSpaceOnUse"><g style="filter:url(#luminosity-noclip-2)"/></mask><linearGradient id="_ÂÁ_Ï_ÌÌ_È_ËÂÌÚ_1-2" x1="530.46" y1="385.17" x2="530.46" y2="248.36" xlink:href="#_ÂÁ_Ï_ÌÌ_È_ËÂÌÚ_1"/><clipPath id="clip-path" transform="translate(-248.31 -118.55)"><path d="M790.66,316.09C734.07,298.91,685.29,274.63,630,207.27s-203.82-46.64-247,54.41S370.91,456,422.73,473.28s85.4,45.19,102.67,100.46,146.15,75.06,190.08,27.5c72.68-78.67,74.31-57.14,108.86-127.1S848.77,333.73,790.66,316.09Z" style="fill:#bce0fe"/></clipPath><filter id="luminosity-noclip-3" x="456.04" y="239.38" width="123.43" height="136.81" filterUnits="userSpaceOnUse" color-interpolation-filters="sRGB"><feFlood flood-color="#fff" result="bg"/><feBlend in="SourceGraphic" in2="bg"/></filter><mask id="mask-3" x="207.73" y="120.83" width="123.43" height="136.81" maskUnits="userSpaceOnUse"><g style="filter:url(#luminosity-noclip-3)"><g transform="translate(-248.31 -118.55)"><g style="mask:url(#mask)"><polygon points="498.49 239.38 456.04 376.19 579.47 376.19 539.36 239.38 498.49 239.38" style="mix-blend-mode:multiply;fill:url(#_ÂÁ_Ï_ÌÌ_È_ËÂÌÚ_1)"/></g></g></g></mask><linearGradient id="_ÂÁ_Ï_ÌÌ_È_ËÂÌÚ_3" x1="269.45" y1="257.64" x2="269.45" y2="120.83" gradientUnits="userSpaceOnUse"><stop offset="0" stop-color="#fff"/><stop offset="1" stop-color="#fff"/></linearGradient><clipPath id="clip-path-2" transform="translate(-248.31 -118.55)"><path d="M469.92,525.67c-38.45-43.45-74.49-45.69-117-36.52s26.56,82.92,96.95,119.08S517,578.85,469.92,525.67Z" style="fill:#bce0fe"/></clipPath><filter id="luminosity-noclip-4" x="468.74" y="248.36" width="123.43" height="136.81" filterUnits="userSpaceOnUse" color-interpolation-filters="sRGB"><feFlood flood-color="#fff" result="bg"/><feBlend in="SourceGraphic" in2="bg"/></filter><mask id="mask-4" x="220.44" y="129.81" width="123.43" height="136.81" maskUnits="userSpaceOnUse"><g style="filter:url(#luminosity-noclip-4)"><g transform="translate(-248.31 -118.55)"><g style="mask:url(#mask-2)"><polygon points="511.19 248.36 468.74 385.17 592.17 385.17 552.06 248.36 511.19 248.36" style="mix-blend-mode:multiply;fill:url(#_ÂÁ_Ï_ÌÌ_È_ËÂÌÚ_1-2)"/></g></g></g></mask><linearGradient id="_ÂÁ_Ï_ÌÌ_È_ËÂÌÚ_3-2" x1="282.15" y1="266.62" x2="282.15" y2="129.81" xlink:href="#_ÂÁ_Ï_ÌÌ_È_ËÂÌÚ_3"/></defs><path d="M790.66,316.09C734.07,298.91,685.29,274.63,630,207.27s-203.82-46.64-247,54.41S370.91,456,422.73,473.28s85.4,45.19,102.67,100.46,146.15,75.06,190.08,27.5c72.68-78.67,74.31-57.14,108.86-127.1S848.77,333.73,790.66,316.09Z" transform="translate(-248.31 -118.55)" style="fill:#bce0fe"/><g style="clip-path:url(#clip-path)"><polygon points="183.6 193.57 183.6 178.45 208.68 178.45 208.68 106.18 215.6 106.18 215.6 178.45 242.62 178.45 242.62 193.57 257.08 193.57 257.08 496.59 152.73 496.59 152.73 193.57 183.6 193.57" style="fill:#dcefff"/><rect x="401.03" y="312.12" width="14.47" height="272.58" transform="translate(568.23 778.26) rotate(180)" style="fill:#a7d5ff"/><rect x="453.21" y="384.3" width="104.36" height="230.84" transform="translate(762.48 880.89) rotate(180)" style="fill:#dcefff"/><rect x="453.21" y="384.3" width="14.47" height="230.84" transform="translate(672.59 880.89) rotate(180)" style="fill:#a7d5ff"/><rect x="719.44" y="384.3" width="104.36" height="230.84" transform="translate(1294.92 880.89) rotate(180)" style="fill:#dcefff"/><rect x="719.44" y="384.3" width="14.47" height="230.84" transform="translate(1205.04 880.89) rotate(180)" style="fill:#a7d5ff"/><rect x="554.66" y="274.5" width="140.02" height="340.63" transform="translate(1001.04 771.09) rotate(180)" style="fill:#dcefff"/><rect x="554.66" y="274.5" width="14.47" height="340.63" transform="translate(875.49 771.09) rotate(180)" style="fill:#a7d5ff"/><rect x="658.07" y="290.82" width="21.87" height="9.08" transform="translate(1089.69 472.16) rotate(180)" style="fill:#eff8fe"/><rect x="621.25" y="290.82" width="21.87" height="9.08" transform="translate(1016.06 472.16) rotate(180)" style="fill:#eff8fe"/><rect x="658.07" y="323.86" width="21.87" height="9.08" transform="translate(1089.69 538.25) rotate(180)" style="fill:#eff8fe"/><rect x="621.25" y="323.86" width="21.87" height="9.08" transform="translate(1016.06 538.25) rotate(180)" style="fill:#eff8fe"/><rect x="584.43" y="323.86" width="21.87" height="9.08" transform="translate(942.42 538.25) rotate(180)" style="fill:#eff8fe"/><rect x="658.07" y="356.91" width="21.87" height="9.08" transform="translate(1089.69 604.34) rotate(180)" style="fill:#eff8fe"/><rect x="584.43" y="356.91" width="21.87" height="9.08" transform="translate(942.42 604.34) rotate(180)" style="fill:#eff8fe"/><rect x="621.25" y="373.43" width="21.87" height="9.08" transform="translate(1016.06 637.39) rotate(180)" style="fill:#eff8fe"/><rect x="658.07" y="389.95" width="21.87" height="9.08" transform="translate(1089.69 670.43) rotate(180)" style="fill:#eff8fe"/><rect x="621.25" y="406.48" width="21.87" height="9.08" transform="translate(1016.06 703.48) rotate(180)" style="fill:#eff8fe"/><rect x="658.07" y="423" width="21.87" height="9.08" transform="translate(1089.69 736.53) rotate(180)" style="fill:#eff8fe"/><rect x="584.43" y="423" width="21.87" height="9.08" transform="translate(942.42 736.53) rotate(180)" style="fill:#eff8fe"/><rect x="658.07" y="453.54" width="21.87" height="9.08" transform="translate(1089.69 797.6) rotate(180)" style="fill:#eff8fe"/><rect x="621.25" y="453.54" width="21.87" height="9.08" transform="translate(1016.06 797.6) rotate(180)" style="fill:#eff8fe"/><rect x="658.07" y="486.58" width="21.87" height="9.08" transform="translate(1089.69 863.69) rotate(180)" style="fill:#eff8fe"/><rect x="621.25" y="486.58" width="21.87" height="9.08" transform="translate(1016.06 863.69) rotate(180)" style="fill:#eff8fe"/><rect x="584.43" y="486.58" width="21.87" height="9.08" transform="translate(942.42 863.69) rotate(180)" style="fill:#eff8fe"/><rect x="658.07" y="519.63" width="21.87" height="9.08" transform="translate(1089.69 929.78) rotate(180)" style="fill:#eff8fe"/><rect x="584.43" y="519.63" width="21.87" height="9.08" transform="translate(942.42 929.78) rotate(180)" style="fill:#eff8fe"/><rect x="621.25" y="536.15" width="21.87" height="9.08" transform="translate(1016.06 962.83) rotate(180)" style="fill:#eff8fe"/><rect x="584.43" y="536.15" width="21.87" height="9.08" transform="translate(942.42 962.83) rotate(180)" style="fill:#eff8fe"/><rect x="658.07" y="552.67" width="21.87" height="9.08" transform="translate(1089.69 995.87) rotate(180)" style="fill:#eff8fe"/><rect x="621.25" y="569.2" width="21.87" height="9.08" transform="translate(1016.06 1028.92) rotate(180)" style="fill:#eff8fe"/><rect x="658.07" y="585.72" width="21.87" height="9.08" transform="translate(1089.69 1061.96) rotate(180)" style="fill:#eff8fe"/><rect x="584.43" y="585.72" width="21.87" height="9.08" transform="translate(942.42 1061.96) rotate(180)" style="fill:#eff8fe"/><rect x="791.33" y="299.89" width="137.23" height="315.24" transform="translate(1471.59 796.48) rotate(180)" style="fill:#dcefff"/><rect x="791.33" y="299.89" width="14.18" height="315.24" transform="translate(1348.54 796.48) rotate(180)" style="fill:#a7d5ff"/><rect x="892.68" y="314.99" width="21.43" height="8.4" transform="translate(1558.48 519.83) rotate(180)" style="fill:#eff8fe"/><rect x="856.59" y="314.99" width="21.43" height="8.4" transform="translate(1486.31 519.83) rotate(180)" style="fill:#eff8fe"/><rect x="892.68" y="345.57" width="21.43" height="8.4" transform="translate(1558.48 581) rotate(180)" style="fill:#eff8fe"/><rect x="856.59" y="345.57" width="21.43" height="8.4" transform="translate(1486.31 581) rotate(180)" style="fill:#eff8fe"/><rect x="820.51" y="345.57" width="21.43" height="8.4" transform="translate(1414.14 581) rotate(180)" style="fill:#eff8fe"/><rect x="892.68" y="376.16" width="21.43" height="8.4" transform="translate(1558.48 642.16) rotate(180)" style="fill:#eff8fe"/><rect x="820.51" y="376.16" width="21.43" height="8.4" transform="translate(1414.14 642.16) rotate(180)" style="fill:#eff8fe"/><rect x="856.59" y="391.45" width="21.43" height="8.4" transform="translate(1486.31 672.74) rotate(180)" style="fill:#eff8fe"/><rect x="892.68" y="406.74" width="21.43" height="8.4" transform="translate(1558.48 703.33) rotate(180)" style="fill:#eff8fe"/><rect x="856.59" y="422.03" width="21.43" height="8.4" transform="translate(1486.31 733.91) rotate(180)" style="fill:#eff8fe"/><rect x="892.68" y="437.32" width="21.43" height="8.4" transform="translate(1558.48 764.49) rotate(180)" style="fill:#eff8fe"/><rect x="820.51" y="437.32" width="21.43" height="8.4" transform="translate(1414.14 764.49) rotate(180)" style="fill:#eff8fe"/><rect x="892.68" y="465.58" width="21.43" height="8.4" transform="translate(1558.48 821.01) rotate(180)" style="fill:#eff8fe"/><rect x="856.59" y="465.58" width="21.43" height="8.4" transform="translate(1486.31 821.01) rotate(180)" style="fill:#eff8fe"/><rect x="892.68" y="496.16" width="21.43" height="8.4" transform="translate(1558.48 882.18) rotate(180)" style="fill:#eff8fe"/><rect x="856.59" y="496.16" width="21.43" height="8.4" transform="translate(1486.31 882.18) rotate(180)" style="fill:#eff8fe"/><rect x="820.51" y="496.16" width="21.43" height="8.4" transform="translate(1414.14 882.18) rotate(180)" style="fill:#eff8fe"/><rect x="892.68" y="526.75" width="21.43" height="8.4" transform="translate(1558.48 943.34) rotate(180)" style="fill:#eff8fe"/><rect x="820.51" y="526.75" width="21.43" height="8.4" transform="translate(1414.14 943.34) rotate(180)" style="fill:#eff8fe"/><rect x="856.59" y="542.04" width="21.43" height="8.4" transform="translate(1486.31 973.92) rotate(180)" style="fill:#eff8fe"/><rect x="820.51" y="542.04" width="21.43" height="8.4" transform="translate(1414.14 973.92) rotate(180)" style="fill:#eff8fe"/><rect x="892.68" y="557.33" width="21.43" height="8.4" transform="translate(1558.48 1004.51) rotate(180)" style="fill:#eff8fe"/><rect x="856.59" y="572.62" width="21.43" height="8.4" transform="translate(1486.31 1035.09) rotate(180)" style="fill:#eff8fe"/><rect x="892.68" y="587.91" width="21.43" height="8.4" transform="translate(1558.48 1065.67) rotate(180)" style="fill:#eff8fe"/><rect x="820.51" y="587.91" width="21.43" height="8.4" transform="translate(1414.14 1065.67) rotate(180)" style="fill:#eff8fe"/><rect x="331.3" y="400.12" width="88.38" height="215.02" transform="translate(502.69 896.71) rotate(180)" style="fill:#dcefff"/><rect x="331.3" y="400.12" width="9.13" height="215.02" transform="translate(423.44 896.71) rotate(180)" style="fill:#a7d5ff"/><rect x="396.58" y="410.42" width="13.8" height="5.73" transform="translate(558.65 708.01) rotate(180)" style="fill:#eff8fe"/><rect x="373.33" y="410.42" width="13.8" height="5.73" transform="translate(512.17 708.01) rotate(180)" style="fill:#eff8fe"/><rect x="396.58" y="431.28" width="13.8" height="5.73" transform="translate(558.65 749.73) rotate(180)" style="fill:#eff8fe"/><rect x="373.33" y="431.28" width="13.8" height="5.73" transform="translate(512.17 749.73) rotate(180)" style="fill:#eff8fe"/><rect x="350.09" y="431.28" width="13.8" height="5.73" transform="translate(465.69 749.73) rotate(180)" style="fill:#eff8fe"/><rect x="396.58" y="452.14" width="13.8" height="5.73" transform="translate(558.65 791.45) rotate(180)" style="fill:#eff8fe"/><rect x="350.09" y="452.14" width="13.8" height="5.73" transform="translate(465.69 791.45) rotate(180)" style="fill:#eff8fe"/><rect x="373.33" y="462.57" width="13.8" height="5.73" transform="translate(512.17 812.31) rotate(180)" style="fill:#eff8fe"/><rect x="396.58" y="473" width="13.8" height="5.73" transform="translate(558.65 833.17) rotate(180)" style="fill:#eff8fe"/><rect x="373.33" y="483.42" width="13.8" height="5.73" transform="translate(512.17 854.03) rotate(180)" style="fill:#eff8fe"/><rect x="396.58" y="493.85" width="13.8" height="5.73" transform="translate(558.65 874.89) rotate(180)" style="fill:#eff8fe"/><rect x="350.09" y="493.85" width="13.8" height="5.73" transform="translate(465.69 874.89) rotate(180)" style="fill:#eff8fe"/><rect x="396.58" y="513.13" width="13.8" height="5.73" transform="translate(558.65 913.44) rotate(180)" style="fill:#eff8fe"/><rect x="373.33" y="513.13" width="13.8" height="5.73" transform="translate(512.17 913.44) rotate(180)" style="fill:#eff8fe"/><rect x="396.58" y="533.99" width="13.8" height="5.73" transform="translate(558.65 955.16) rotate(180)" style="fill:#eff8fe"/><rect x="373.33" y="533.99" width="13.8" height="5.73" transform="translate(512.17 955.16) rotate(180)" style="fill:#eff8fe"/><rect x="350.09" y="533.99" width="13.8" height="5.73" transform="translate(465.69 955.16) rotate(180)" style="fill:#eff8fe"/><rect x="396.58" y="554.85" width="13.8" height="5.73" transform="translate(558.65 996.88) rotate(180)" style="fill:#eff8fe"/><rect x="350.09" y="554.85" width="13.8" height="5.73" transform="translate(465.69 996.88) rotate(180)" style="fill:#eff8fe"/><rect x="373.33" y="565.28" width="13.8" height="5.73" transform="translate(512.17 1017.74) rotate(180)" style="fill:#eff8fe"/><rect x="350.09" y="565.28" width="13.8" height="5.73" transform="translate(465.69 1017.74) rotate(180)" style="fill:#eff8fe"/><rect x="396.58" y="575.71" width="13.8" height="5.73" transform="translate(558.65 1038.59) rotate(180)" style="fill:#eff8fe"/><rect x="373.33" y="586.14" width="13.8" height="5.73" transform="translate(512.17 1059.45) rotate(180)" style="fill:#eff8fe"/><rect x="396.58" y="596.57" width="13.8" height="5.73" transform="translate(558.65 1080.31) rotate(180)" style="fill:#eff8fe"/><rect x="350.09" y="596.57" width="13.8" height="5.73" transform="translate(465.69 1080.31) rotate(180)" style="fill:#eff8fe"/><path d="M518.89,267.58A31.9,31.9,0,0,1,487,235.71h1.49a30.37,30.37,0,0,0,60.74,0h1.5A31.91,31.91,0,0,1,518.89,267.58Z" transform="translate(-248.31 -118.55)" style="fill:#eff8fe"/><polygon points="270.15 92.23 229.96 125.53 318.58 125.53 270.15 92.23" style="fill:#eff8fe"/><g style="mask:url(#mask-3)"><polygon points="250.18 120.83 207.73 257.64 331.16 257.64 291.05 120.83 250.18 120.83" style="opacity:0.22;fill:url(#_ÂÁ_Ï_ÌÌ_È_ËÂÌÚ_3)"/></g><rect x="268.31" y="40.67" width="3.9" height="61.82" style="fill:#dcefff"/><path d="M268.34,96.64h3.84a4.62,4.62,0,0,1,4.62,4.62v9.55a0,0,0,0,1,0,0H263.72a0,0,0,0,1,0,0v-9.55A4.62,4.62,0,0,1,268.34,96.64Z" style="fill:#f4bf62"/><circle cx="270.09" cy="126.65" r="7.62" style="fill:#eff8fe"/><path d="M518.5,250c-1.8-.32-4.28-1.74-4.75-3.65-.16-.68-1.21-.39-1,.29.56,2.27,3.33,4,5.51,4.41C518.89,251.14,519.19,250.1,518.5,250Z" transform="translate(-248.31 -118.55)" style="fill:#fff"/><polygon points="270.15 92.23 225.85 125.53 314.46 125.53 270.15 92.23" style="fill:#dcefff"/><rect x="266.04" y="88.12" width="8.23" height="8.23" rx="2.29" style="fill:#eff8fe"/><path d="M475,198.76a19.32,19.32,0,1,1-19.32-19.32A19.32,19.32,0,0,1,475,198.76Z" transform="translate(-248.31 -118.55)" style="fill:#fff"/><rect x="4.63" y="37.22" width="422.82" height="468.46" style="fill:#fff;opacity:0.14"/><rect y="31.86" width="9.25" height="479.86" style="fill:#fff"/><rect x="422.82" y="31.86" width="9.25" height="479.86" style="fill:#fff"/><polygon points="150.19 497.22 117.38 497.22 293.29 42.58 326.11 42.58 150.19 497.22" style="fill:#fff;opacity:0.6000000000000001"/><polygon points="92.25 497.22 75.84 497.22 251.75 42.58 268.16 42.58 92.25 497.22" style="fill:#fff;opacity:0.6000000000000001"/><polygon points="288.17 497.22 271.76 497.22 422.58 91.39 422.58 124.09 288.17 497.22" style="fill:#fff;opacity:0.6000000000000001"/><rect x="140.94" y="34.28" width="9.25" height="475.02" style="fill:#fff"/><rect x="458.14" y="409.03" width="12.4" height="432.07" transform="translate(-409.03 970.86) rotate(-90)" style="fill:#fff"/><rect x="281.88" y="34.28" width="9.25" height="475.02" style="fill:#fff"/><rect x="462.45" y="410.92" width="3.78" height="413.48" transform="translate(833.7 34.77) rotate(90)" style="fill:#fff"/><rect x="458.98" y="-60.27" width="10.72" height="432.07" transform="translate(60.27 501.56) rotate(-90)" style="fill:#fff"/><rect x="462.45" y="-43.8" width="3.78" height="413.65" transform="translate(379.06 -419.87) rotate(90)" style="fill:#fff"/><rect x="427.49" y="37.22" width="422.82" height="468.46" style="fill:#fff;opacity:0.14"/><rect x="422.86" y="31.86" width="9.25" height="479.86" style="fill:#fff"/><polygon points="499.6 497.22 466.78 497.22 642.7 42.58 675.51 42.58 499.6 497.22" style="fill:#fff;opacity:0.6000000000000001"/><polygon points="441.65 497.22 425.25 497.22 601.16 42.58 617.57 42.58 441.65 497.22" style="fill:#fff;opacity:0.6000000000000001"/><rect x="563.8" y="34.28" width="9.25" height="475.02" style="fill:#fff"/><rect x="881" y="409.03" width="12.4" height="432.07" transform="translate(13.83 1393.72) rotate(-90)" style="fill:#fff"/><rect x="885.31" y="410.92" width="3.78" height="413.48" transform="translate(1256.56 -388.1) rotate(90)" style="fill:#fff"/><rect x="881.84" y="-60.27" width="10.72" height="432.07" transform="translate(483.13 924.42) rotate(-90)" style="fill:#fff"/><rect x="885.31" y="-43.8" width="3.78" height="413.65" transform="translate(801.92 -842.73) rotate(90)" style="fill:#fff"/><rect x="680.69" y="-197.47" width="5.36" height="870.13" transform="translate(197.47 802.41) rotate(-90)" style="fill:#fff"/><rect x="680.69" y="-54.54" width="5.36" height="870.13" transform="translate(54.54 945.34) rotate(-90)" style="fill:#fff"/><rect x="680.69" y="88.39" width="5.36" height="870.13" transform="translate(-88.39 1088.27) rotate(-90)" style="fill:#fff"/></g><path d="M469.92,525.67c-38.45-43.45-74.49-45.69-117-36.52s26.56,82.92,96.95,119.08S517,578.85,469.92,525.67Z" transform="translate(-248.31 -118.55)" style="fill:#bce0fe"/><g style="clip-path:url(#clip-path-2)"><polygon points="183.6 193.57 183.6 178.45 208.68 178.45 208.68 106.18 215.6 106.18 215.6 178.45 242.62 178.45 242.62 193.57 257.08 193.57 257.08 496.59 152.73 496.59 152.73 193.57 183.6 193.57" style="fill:#dcefff"/><rect x="401.03" y="312.12" width="14.47" height="272.58" transform="translate(568.23 778.26) rotate(180)" style="fill:#a7d5ff"/><rect x="453.21" y="384.3" width="104.36" height="230.84" transform="translate(762.48 880.89) rotate(180)" style="fill:#dcefff"/><rect x="453.21" y="384.3" width="14.47" height="230.84" transform="translate(672.59 880.89) rotate(180)" style="fill:#a7d5ff"/><rect x="719.44" y="384.3" width="104.36" height="230.84" transform="translate(1294.92 880.89) rotate(180)" style="fill:#dcefff"/><rect x="719.44" y="384.3" width="14.47" height="230.84" transform="translate(1205.04 880.89) rotate(180)" style="fill:#a7d5ff"/><rect x="554.66" y="274.5" width="140.02" height="340.63" transform="translate(1001.04 771.09) rotate(180)" style="fill:#dcefff"/><rect x="554.66" y="274.5" width="14.47" height="340.63" transform="translate(875.49 771.09) rotate(180)" style="fill:#a7d5ff"/><rect x="658.07" y="290.82" width="21.87" height="9.08" transform="translate(1089.69 472.16) rotate(180)" style="fill:#eff8fe"/><rect x="621.25" y="290.82" width="21.87" height="9.08" transform="translate(1016.06 472.16) rotate(180)" style="fill:#eff8fe"/><rect x="658.07" y="323.86" width="21.87" height="9.08" transform="translate(1089.69 538.25) rotate(180)" style="fill:#eff8fe"/><rect x="621.25" y="323.86" width="21.87" height="9.08" transform="translate(1016.06 538.25) rotate(180)" style="fill:#eff8fe"/><rect x="584.43" y="323.86" width="21.87" height="9.08" transform="translate(942.42 538.25) rotate(180)" style="fill:#eff8fe"/><rect x="658.07" y="356.91" width="21.87" height="9.08" transform="translate(1089.69 604.34) rotate(180)" style="fill:#eff8fe"/><rect x="584.43" y="356.91" width="21.87" height="9.08" transform="translate(942.42 604.34) rotate(180)" style="fill:#eff8fe"/><rect x="621.25" y="373.43" width="21.87" height="9.08" transform="translate(1016.06 637.39) rotate(180)" style="fill:#eff8fe"/><rect x="658.07" y="389.95" width="21.87" height="9.08" transform="translate(1089.69 670.43) rotate(180)" style="fill:#eff8fe"/><rect x="621.25" y="406.48" width="21.87" height="9.08" transform="translate(1016.06 703.48) rotate(180)" style="fill:#eff8fe"/><rect x="658.07" y="423" width="21.87" height="9.08" transform="translate(1089.69 736.53) rotate(180)" style="fill:#eff8fe"/><rect x="584.43" y="423" width="21.87" height="9.08" transform="translate(942.42 736.53) rotate(180)" style="fill:#eff8fe"/><rect x="658.07" y="453.54" width="21.87" height="9.08" transform="translate(1089.69 797.6) rotate(180)" style="fill:#eff8fe"/><rect x="621.25" y="453.54" width="21.87" height="9.08" transform="translate(1016.06 797.6) rotate(180)" style="fill:#eff8fe"/><rect x="658.07" y="486.58" width="21.87" height="9.08" transform="translate(1089.69 863.69) rotate(180)" style="fill:#eff8fe"/><rect x="621.25" y="486.58" width="21.87" height="9.08" transform="translate(1016.06 863.69) rotate(180)" style="fill:#eff8fe"/><rect x="584.43" y="486.58" width="21.87" height="9.08" transform="translate(942.42 863.69) rotate(180)" style="fill:#eff8fe"/><rect x="658.07" y="519.63" width="21.87" height="9.08" transform="translate(1089.69 929.78) rotate(180)" style="fill:#eff8fe"/><rect x="584.43" y="519.63" width="21.87" height="9.08" transform="translate(942.42 929.78) rotate(180)" style="fill:#eff8fe"/><rect x="621.25" y="536.15" width="21.87" height="9.08" transform="translate(1016.06 962.83) rotate(180)" style="fill:#eff8fe"/><rect x="584.43" y="536.15" width="21.87" height="9.08" transform="translate(942.42 962.83) rotate(180)" style="fill:#eff8fe"/><rect x="658.07" y="552.67" width="21.87" height="9.08" transform="translate(1089.69 995.87) rotate(180)" style="fill:#eff8fe"/><rect x="621.25" y="569.2" width="21.87" height="9.08" transform="translate(1016.06 1028.92) rotate(180)" style="fill:#eff8fe"/><rect x="658.07" y="585.72" width="21.87" height="9.08" transform="translate(1089.69 1061.96) rotate(180)" style="fill:#eff8fe"/><rect x="584.43" y="585.72" width="21.87" height="9.08" transform="translate(942.42 1061.96) rotate(180)" style="fill:#eff8fe"/><rect x="791.33" y="299.89" width="137.23" height="315.24" transform="translate(1471.59 796.48) rotate(180)" style="fill:#dcefff"/><rect x="791.33" y="299.89" width="14.18" height="315.24" transform="translate(1348.54 796.48) rotate(180)" style="fill:#a7d5ff"/><rect x="892.68" y="314.99" width="21.43" height="8.4" transform="translate(1558.48 519.83) rotate(180)" style="fill:#eff8fe"/><rect x="856.59" y="314.99" width="21.43" height="8.4" transform="translate(1486.31 519.83) rotate(180)" style="fill:#eff8fe"/><rect x="892.68" y="345.57" width="21.43" height="8.4" transform="translate(1558.48 581) rotate(180)" style="fill:#eff8fe"/><rect x="856.59" y="345.57" width="21.43" height="8.4" transform="translate(1486.31 581) rotate(180)" style="fill:#eff8fe"/><rect x="820.51" y="345.57" width="21.43" height="8.4" transform="translate(1414.14 581) rotate(180)" style="fill:#eff8fe"/><rect x="892.68" y="376.16" width="21.43" height="8.4" transform="translate(1558.48 642.16) rotate(180)" style="fill:#eff8fe"/><rect x="820.51" y="376.16" width="21.43" height="8.4" transform="translate(1414.14 642.16) rotate(180)" style="fill:#eff8fe"/><rect x="856.59" y="391.45" width="21.43" height="8.4" transform="translate(1486.31 672.74) rotate(180)" style="fill:#eff8fe"/><rect x="892.68" y="406.74" width="21.43" height="8.4" transform="translate(1558.48 703.33) rotate(180)" style="fill:#eff8fe"/><rect x="856.59" y="422.03" width="21.43" height="8.4" transform="translate(1486.31 733.91) rotate(180)" style="fill:#eff8fe"/><rect x="892.68" y="437.32" width="21.43" height="8.4" transform="translate(1558.48 764.49) rotate(180)" style="fill:#eff8fe"/><rect x="820.51" y="437.32" width="21.43" height="8.4" transform="translate(1414.14 764.49) rotate(180)" style="fill:#eff8fe"/><rect x="892.68" y="465.58" width="21.43" height="8.4" transform="translate(1558.48 821.01) rotate(180)" style="fill:#eff8fe"/><rect x="856.59" y="465.58" width="21.43" height="8.4" transform="translate(1486.31 821.01) rotate(180)" style="fill:#eff8fe"/><rect x="892.68" y="496.16" width="21.43" height="8.4" transform="translate(1558.48 882.18) rotate(180)" style="fill:#eff8fe"/><rect x="856.59" y="496.16" width="21.43" height="8.4" transform="translate(1486.31 882.18) rotate(180)" style="fill:#eff8fe"/><rect x="820.51" y="496.16" width="21.43" height="8.4" transform="translate(1414.14 882.18) rotate(180)" style="fill:#eff8fe"/><rect x="892.68" y="526.75" width="21.43" height="8.4" transform="translate(1558.48 943.34) rotate(180)" style="fill:#eff8fe"/><rect x="820.51" y="526.75" width="21.43" height="8.4" transform="translate(1414.14 943.34) rotate(180)" style="fill:#eff8fe"/><rect x="856.59" y="542.04" width="21.43" height="8.4" transform="translate(1486.31 973.92) rotate(180)" style="fill:#eff8fe"/><rect x="820.51" y="542.04" width="21.43" height="8.4" transform="translate(1414.14 973.92) rotate(180)" style="fill:#eff8fe"/><rect x="892.68" y="557.33" width="21.43" height="8.4" transform="translate(1558.48 1004.51) rotate(180)" style="fill:#eff8fe"/><rect x="856.59" y="572.62" width="21.43" height="8.4" transform="translate(1486.31 1035.09) rotate(180)" style="fill:#eff8fe"/><rect x="892.68" y="587.91" width="21.43" height="8.4" transform="translate(1558.48 1065.67) rotate(180)" style="fill:#eff8fe"/><rect x="820.51" y="587.91" width="21.43" height="8.4" transform="translate(1414.14 1065.67) rotate(180)" style="fill:#eff8fe"/><rect x="331.3" y="400.12" width="88.38" height="215.02" transform="translate(502.69 896.71) rotate(180)" style="fill:#dcefff"/><rect x="331.3" y="400.12" width="9.13" height="215.02" transform="translate(423.44 896.71) rotate(180)" style="fill:#a7d5ff"/><rect x="4.63" y="37.22" width="422.82" height="468.46" style="fill:#fff;opacity:0.14"/><rect y="31.86" width="9.25" height="479.86" style="fill:#fff"/><rect x="422.82" y="31.86" width="9.25" height="479.86" style="fill:#fff"/><polygon points="150.19 497.22 117.38 497.22 293.29 42.58 326.11 42.58 150.19 497.22" style="fill:#fff;opacity:0.6000000000000001"/><polygon points="92.25 497.22 75.84 497.22 251.75 42.58 268.16 42.58 92.25 497.22" style="fill:#fff;opacity:0.6000000000000001"/><polygon points="288.17 497.22 271.76 497.22 422.58 91.39 422.58 124.09 288.17 497.22" style="fill:#fff;opacity:0.6000000000000001"/><rect x="140.94" y="34.28" width="9.25" height="475.02" style="fill:#fff"/><rect x="458.14" y="409.03" width="12.4" height="432.07" transform="translate(-409.03 970.86) rotate(-90)" style="fill:#fff"/><rect x="281.88" y="34.28" width="9.25" height="475.02" style="fill:#fff"/><rect x="462.45" y="410.92" width="3.78" height="413.48" transform="translate(833.7 34.77) rotate(90)" style="fill:#fff"/><rect x="458.98" y="-60.27" width="10.72" height="432.07" transform="translate(60.27 501.56) rotate(-90)" style="fill:#fff"/><rect x="462.45" y="-43.8" width="3.78" height="413.65" transform="translate(379.06 -419.87) rotate(90)" style="fill:#fff"/><rect x="427.49" y="37.22" width="422.82" height="468.46" style="fill:#fff;opacity:0.14"/><rect x="422.86" y="31.86" width="9.25" height="479.86" style="fill:#fff"/><polygon points="499.6 497.22 466.78 497.22 642.7 42.58 675.51 42.58 499.6 497.22" style="fill:#fff;opacity:0.6000000000000001"/><polygon points="441.65 497.22 425.25 497.22 601.16 42.58 617.57 42.58 441.65 497.22" style="fill:#fff;opacity:0.6000000000000001"/><rect x="563.8" y="34.28" width="9.25" height="475.02" style="fill:#fff"/><rect x="881" y="409.03" width="12.4" height="432.07" transform="translate(13.83 1393.72) rotate(-90)" style="fill:#fff"/><rect x="885.31" y="410.92" width="3.78" height="413.48" transform="translate(1256.56 -388.1) rotate(90)" style="fill:#fff"/><rect x="881.84" y="-60.27" width="10.72" height="432.07" transform="translate(483.13 924.42) rotate(-90)" style="fill:#fff"/><rect x="885.31" y="-43.8" width="3.78" height="413.65" transform="translate(801.92 -842.73) rotate(90)" style="fill:#fff"/><rect x="680.69" y="-197.47" width="5.36" height="870.13" transform="translate(197.47 802.41) rotate(-90)" style="fill:#fff"/><rect x="680.69" y="-54.54" width="5.36" height="870.13" transform="translate(54.54 945.34) rotate(-90)" style="fill:#fff"/><rect x="680.69" y="88.39" width="5.36" height="870.13" transform="translate(-88.39 1088.27) rotate(-90)" style="fill:#fff"/><rect x="396.58" y="410.42" width="13.8" height="5.73" transform="translate(558.65 708.01) rotate(180)" style="fill:#eff8fe"/><rect x="373.33" y="410.42" width="13.8" height="5.73" transform="translate(512.17 708.01) rotate(180)" style="fill:#eff8fe"/><rect x="396.58" y="431.28" width="13.8" height="5.73" transform="translate(558.65 749.73) rotate(180)" style="fill:#eff8fe"/><rect x="373.33" y="431.28" width="13.8" height="5.73" transform="translate(512.17 749.73) rotate(180)" style="fill:#eff8fe"/><rect x="350.09" y="431.28" width="13.8" height="5.73" transform="translate(465.69 749.73) rotate(180)" style="fill:#eff8fe"/><rect x="396.58" y="452.14" width="13.8" height="5.73" transform="translate(558.65 791.45) rotate(180)" style="fill:#eff8fe"/><rect x="350.09" y="452.14" width="13.8" height="5.73" transform="translate(465.69 791.45) rotate(180)" style="fill:#eff8fe"/><rect x="373.33" y="462.57" width="13.8" height="5.73" transform="translate(512.17 812.31) rotate(180)" style="fill:#eff8fe"/><rect x="396.58" y="473" width="13.8" height="5.73" transform="translate(558.65 833.17) rotate(180)" style="fill:#eff8fe"/><rect x="373.33" y="483.42" width="13.8" height="5.73" transform="translate(512.17 854.03) rotate(180)" style="fill:#eff8fe"/><rect x="396.58" y="493.85" width="13.8" height="5.73" transform="translate(558.65 874.89) rotate(180)" style="fill:#eff8fe"/><rect x="350.09" y="493.85" width="13.8" height="5.73" transform="translate(465.69 874.89) rotate(180)" style="fill:#eff8fe"/><rect x="396.58" y="513.13" width="13.8" height="5.73" transform="translate(558.65 913.44) rotate(180)" style="fill:#eff8fe"/><rect x="373.33" y="513.13" width="13.8" height="5.73" transform="translate(512.17 913.44) rotate(180)" style="fill:#eff8fe"/><rect x="396.58" y="533.99" width="13.8" height="5.73" transform="translate(558.65 955.16) rotate(180)" style="fill:#eff8fe"/><rect x="373.33" y="533.99" width="13.8" height="5.73" transform="translate(512.17 955.16) rotate(180)" style="fill:#eff8fe"/><rect x="350.09" y="533.99" width="13.8" height="5.73" transform="translate(465.69 955.16) rotate(180)" style="fill:#eff8fe"/><rect x="396.58" y="554.85" width="13.8" height="5.73" transform="translate(558.65 996.88) rotate(180)" style="fill:#eff8fe"/><rect x="350.09" y="554.85" width="13.8" height="5.73" transform="translate(465.69 996.88) rotate(180)" style="fill:#eff8fe"/><rect x="373.33" y="565.28" width="13.8" height="5.73" transform="translate(512.17 1017.74) rotate(180)" style="fill:#eff8fe"/><rect x="350.09" y="565.28" width="13.8" height="5.73" transform="translate(465.69 1017.74) rotate(180)" style="fill:#eff8fe"/><rect x="396.58" y="575.71" width="13.8" height="5.73" transform="translate(558.65 1038.59) rotate(180)" style="fill:#eff8fe"/><rect x="373.33" y="586.14" width="13.8" height="5.73" transform="translate(512.17 1059.45) rotate(180)" style="fill:#eff8fe"/><rect x="396.58" y="596.57" width="13.8" height="5.73" transform="translate(558.65 1080.31) rotate(180)" style="fill:#eff8fe"/><rect x="350.09" y="596.57" width="13.8" height="5.73" transform="translate(465.69 1080.31) rotate(180)" style="fill:#eff8fe"/><path d="M531.59,276.56a31.9,31.9,0,0,1-31.86-31.87h1.5a30.37,30.37,0,1,0,60.73,0h1.5A31.9,31.9,0,0,1,531.59,276.56Z" transform="translate(-248.31 -118.55)" style="fill:#eff8fe"/><polygon points="282.86 101.21 242.67 134.51 331.28 134.51 282.86 101.21" style="fill:#eff8fe"/><g style="mask:url(#mask-4)"><polygon points="262.88 129.81 220.44 266.62 343.87 266.62 303.75 129.81 262.88 129.81" style="opacity:0.22;fill:url(#_ÂÁ_Ï_ÌÌ_È_ËÂÌÚ_3-2)"/></g><rect x="281.01" y="67.36" width="3.9" height="44.11" style="fill:#dcefff"/><path d="M281,105.62h3.84a4.62,4.62,0,0,1,4.62,4.62v9.55a0,0,0,0,1,0,0H276.43a0,0,0,0,1,0,0v-9.55A4.62,4.62,0,0,1,281,105.62Z" style="fill:#f4bf62"/><path d="M538.71,254.19a7.62,7.62,0,1,0-7.61,7.61A7.62,7.62,0,0,0,538.71,254.19Z" transform="translate(-248.31 -118.55)" style="fill:#eff8fe"/><path d="M531.2,259c-1.8-.32-4.28-1.74-4.74-3.65a.54.54,0,0,0-1.05.29c.55,2.27,3.32,4,5.5,4.41C531.6,260.12,531.89,259.08,531.2,259Z" transform="translate(-248.31 -118.55)" style="fill:#fff"/><polygon points="282.86 101.21 238.55 134.51 327.17 134.51 282.86 101.21" style="fill:#dcefff"/><rect x="278.74" y="97.1" width="8.23" height="8.23" rx="2.29" style="fill:#eff8fe"/></g><path d="M707.65,569.05c-1.33-4.69-4.21-6.12-6.63-10-4.24-6.7-.14-13.33-3.13-20.56a22.9,22.9,0,0,0-1.22-2.48,19,19,0,0,0-1.75-4.17c-3.27-6-3.75-7.83-3.22-15.17.65-8.89.45-17.54-2-26.17-3-10.29-15.67-17.76-18.79-2.68-1.94,9.36,5.78,14.38,7.58,22.63,1.65,7.55-3.44,13.19.62,20.84,1.49,2.82,4.1,4.79,5.77,7.44,5.25,8.32,1,11.15,2.54,19.23a17.74,17.74,0,0,0,3.23,7,23,23,0,0,1,6.33,7,31.74,31.74,0,0,1-1.34,12.76c-1.74,6.93,9,9.89,10.7,3C707.81,581.71,709.38,575.2,707.65,569.05Z" transform="translate(-248.31 -118.55)" style="fill:#00c3c8"/><path d="M722.19,485.33c-7.41-6.52-15.63,1.83-18.37,8.87a29,29,0,0,0-1,17.95c.62,2.35,2.24,4.65,2.7,7,2.17,10.87-.81,9.68-3.63,16.59-2.1,5.16-1.3,10,.14,15.13,1.07,3.84,3.62,7.15,4.48,11.08,1.48,6.74-1,14.12-2.37,20.62-1.52,7,9.18,9.94,10.7,3,2.39-11,4.93-19.44,1-30.26-2.71-7.43-3.51-12-.93-19.53,2.44-7.14,4.73-14,4.07-15.83-3.88-10.5,3.28-14.76,5.93-23.73C726.08,492.19,725.36,488.11,722.19,485.33Z" transform="translate(-248.31 -118.55)" style="fill:#00c3c8"/><path d="M749,515.06c-5.24-8-15.42-3.1-19.81,2.79A24.69,24.69,0,0,0,724.54,531c-.34,5.3,3.44,11.76,1.31,15.92-2,3.9-6.66,6-8.58,10.63-2.85,6.89-3.11,15.21-4.17,22.49-1,7,9.68,10,10.71,3,1.5-10.32,1.46-19.43,8.74-27.31,3.26-3.53,7.6-7.76,7.52-14.05-.14-9.43,6.36-10.91,9.57-18.17A9.39,9.39,0,0,0,749,515.06Z" transform="translate(-248.31 -118.55)" style="fill:#00c3c8"/><path d="M702,570.31c-2.42-5.51-6-9.72-6.63-16-.42-4.56.28-9.1-1.15-13.54-1.19-3.68-3.78-6.32-5.68-9.6-3.17-5.47-2.16-10.78-1.75-16.69a47.2,47.2,0,0,0-4.62-23.75c-.76-1.61-3.15-.21-2.39,1.4,4.41,9.39,4.25,18,3.73,28-.4,7.71,2.59,11.33,6.27,17.71,4.31,7.46,1.34,16.16,4.5,24,1.64,4,4.69,7.43,6,11.6,1.88,5.89.59,12.1-.65,18-.37,1.74,2.3,2.48,2.67.74C703.89,584.78,705.16,577.47,702,570.31Z" transform="translate(-248.31 -118.55)" style="fill:#00aeb3"/><path d="M714.34,492.24a29.07,29.07,0,0,0-5.24,19.85c.35,3,1.47,5.8,2,8.76,1,5.26-.62,9.28-2.42,14.07-2.61,6.94-1.63,12.2,0,19.23a76.48,76.48,0,0,1,.54,32.68c-.34,1.74,2.34,2.49,2.68.74A79.78,79.78,0,0,0,713.28,564c-.89-8.71-5.42-17.82-2.57-26.42,1.87-5.64,4.4-10.34,3.32-16.42-.76-4.25-2.34-8-2.32-12.43a26.62,26.62,0,0,1,5-15.08C717.75,492.16,715.34,490.77,714.34,492.24Z" transform="translate(-248.31 -118.55)" style="fill:#00aeb3"/><path d="M737.52,520.47a39.87,39.87,0,0,0-6.19,14.12c-1.46,6.94-.52,13.51-4.31,19.93-5.85,9.91-13.23,17.83-13.48,30a1.39,1.39,0,0,0,2.78,0c.28-13.77,10.49-20.82,15.21-32.54,1.67-4.17,1.43-8.29,1.9-12.7a37.7,37.7,0,0,1,6.49-17.37C740.92,520.39,738.51,519,737.52,520.47Z" transform="translate(-248.31 -118.55)" style="fill:#00aeb3"/><path d="M735.63,601.19A32.22,32.22,0,0,1,732,614.5h0a41,41,0,0,1-8.1,10.66H697.05c-21.93-21.14-6.72-44.46-6.16-45.32l0,0H730A38,38,0,0,1,735.63,601.19Z" transform="translate(-248.31 -118.55)" style="fill:#ffb13f"/><path d="M732,614.5h0a41,41,0,0,1-8.1,10.66H697.05c-21.93-21.14-6.72-44.46-6.16-45.32l0,0S693.17,627.15,732,614.5Z" transform="translate(-248.31 -118.55)" style="fill:#de9a37"/><path d="M726.41,627.07H694.49a1.92,1.92,0,0,1-1.91-1.91h0a1.91,1.91,0,0,1,1.91-1.91h31.92a1.9,1.9,0,0,1,1.91,1.91h0A1.91,1.91,0,0,1,726.41,627.07Z" transform="translate(-248.31 -118.55)" style="fill:#ffb13f"/><path d="M735.63,601.19a21.55,21.55,0,0,1-15,1.88c-12.48-2.66-12-16.43-11-23.25H730A38,38,0,0,1,735.63,601.19Z" transform="translate(-248.31 -118.55)" style="fill:#ffcc82"/><path d="M476.64,623a4.35,4.35,0,1,1-4.35-4.35A4.34,4.34,0,0,1,476.64,623Z" transform="translate(-248.31 -118.55)" style="fill:#002969"/><path d="M502.77,623.15a4.35,4.35,0,1,1-4.35-4.35A4.35,4.35,0,0,1,502.77,623.15Z" transform="translate(-248.31 -118.55)" style="fill:#002969"/><path d="M490.37,612.56a6.85,6.85,0,0,1-4.19,1.2,6.23,6.23,0,0,1-4.18-1.2V547.65h8.37Z" transform="translate(-248.31 -118.55)" style="fill:#0053b5"/><path d="M490.37,612.56a8.18,8.18,0,0,1-1.13.63,14,14,0,0,1-1.35.41v-66h2.48Z" transform="translate(-248.31 -118.55)" style="fill:#002969"/><path d="M527.85,474.44C516.39,457.68,503,445,453.72,453c-17.07,2.79-34,11.35-32.89,22.65,1,10.84,10.23,60.18,26.05,68.55s36.93,8.08,53.05,5.29,25.33-2.79,30.66-7.76S539.34,491.19,527.85,474.44Zm-1.54,65.14c-2.48,1.86-25.13,5.59-31,6.52s-12.1,2.49-12.4-12.72-5.84-34.6-11.17-38.15c-7.44-5-33.2-11.49-41.88-19.23s18.3-17.68,30.4-19.25c24.2-3.09,52.43-2.47,63.9,19.25S528.78,537.72,526.31,539.58Z" transform="translate(-248.31 -118.55)" style="fill:#00aeb3"/><path d="M528.19,534.13c-.69,3.09-1.37,5.08-1.88,5.45-2.47,1.86-25.12,5.59-31,6.52s-12.1,2.49-12.4-12.72a79.93,79.93,0,0,0-.89-10.23c-1.81-12.62-6.11-25.13-10.28-27.92-7.44-5-33.2-11.49-41.88-19.23s18.3-17.68,30.4-19.25c24.19-3.09,52.43-2.47,63.89,19.25C533.27,493.25,530.82,522.1,528.19,534.13Z" transform="translate(-248.31 -118.55)" style="fill:#00aeb3"/><path d="M528.21,533.94l0,.19c-.69,3.09-1.37,5.08-1.88,5.45-2.47,1.86-25.12,5.59-31,6.52s-12.1,2.49-12.4-12.72a79.93,79.93,0,0,0-.89-10.23C500.81,523.57,527.63,525.66,528.21,533.94Z" transform="translate(-248.31 -118.55)" style="fill:#00aeb3"/><path d="M616.74,476.76c-.41-2.48-3-8.19-6-9.21s-8.85-2.92-12-2.8c-1.22.05.27,4.34.8,5.19a1.21,1.21,0,0,0,1.05,1.44c2.62.28,5.54.22,8.09.92,2.33.63,3.36,3.6,5.09,5.31C614.67,478.46,616.86,477.43,616.74,476.76Z" transform="translate(-248.31 -118.55)" style="fill:#ffa08f"/><path d="M610,482.39c-.48-3.11-2.36-8.4-5.37-9.67a30.39,30.39,0,0,0-9.71-2.57c-1.23,0-1.92,3.27-1.11,3.43,2.59.5,6,2.8,8.48,3.7,2.28.83,3.09,3.87,4.71,5.71C607.82,483.91,610.17,483.4,610,482.39Z" transform="translate(-248.31 -118.55)" style="fill:#ffa08f"/><path d="M604.5,482.5c.43-2.69-.71-8.72-3.51-10.46s-7-1.77-10-2.41a1.4,1.4,0,0,0-1.67,1.82,5.57,5.57,0,0,0,3.36,5.28c2.5.94,4.09-1,6.45.35,2.14,1.18,1.41,3.37,2.75,5.44C602.53,483.55,604.39,483.17,604.5,482.5Z" transform="translate(-248.31 -118.55)" style="fill:#ffa08f"/><path d="M613.91,481.75c.22-2.06-1.54-8.61-4.41-10.21s-7-1.43-10.07-1.91c-1.22-.19-1.72,1.16-1.33,2.09a1.22,1.22,0,0,0,.8,1.61c2.53.79,5.42,1.3,7.83,2.48,2.18,1.07,2.7,4.18,4.13,6.19C611.58,483,613.84,482.42,613.91,481.75Z" transform="translate(-248.31 -118.55)" style="fill:#ffa08f"/><path d="M593.41,463.93c-6,.28-15.19-.18-15.19-.18l-.24,9.52,10.95.81,2.49-.19S595.84,463.81,593.41,463.93Z" transform="translate(-248.31 -118.55)" style="fill:#ffa08f"/><path d="M602,465.08s-6.19-1.9-9.38-1-3.32,7.36-3.32,7.36l4.41,1.13,8.36-.41.36-5.85Z" transform="translate(-248.31 -118.55)" style="fill:#ffa08f"/><path d="M604.38,478.83s-.25-5.33-3.39-6.79c0,0,4.84,2.55,4.87,7.85,0,1,1.73,3.46,1.73,3.46s-.76-.08-1.86-2A23.34,23.34,0,0,1,604.38,478.83Z" transform="translate(-248.31 -118.55)" style="fill:#fe7d69"/><path d="M612.83,476.37s-2-4-3.33-4.83a14.28,14.28,0,0,0-3.8-1.31s3.73-.19,4.75,1.23,3.34,6.15,3.34,6.15Z" transform="translate(-248.31 -118.55)" style="fill:#fe7d69"/><path d="M599.08,474.77l.08-12.23s-56.41-5.84-58.57-5.26c-6.93,1.86-10.91,23.24,4.11,22.88C564.52,479.68,599.08,474.77,599.08,474.77Z" transform="translate(-248.31 -118.55)" style="fill:#ff7d43"/><path d="M553.31,467.54c-2.23,4.22-5.81,6.77-9.87,7.22a11.3,11.3,0,0,1-3.48-.05c-8.79-1.41-21-24.57-27.3-46.18-3.41-11.61,0-31.88,3.41-30.12,7.66,4,22,37.25,30,49.06C551,454.83,554.85,464.67,553.31,467.54Z" transform="translate(-248.31 -118.55)" style="fill:#ff7d43"/><path d="M560.78,474.19c-1.71,2.27-18,5.87-19.22,5.68-8.8-1.41-22.56-29.73-28.9-51.34-3.41-11.61-1-25.33.36-30.08a10.36,10.36,0,0,1,1.49-.1,13.91,13.91,0,0,1,1.56.06,27.67,27.67,0,0,1,4,6.29c6,12.17,4.74,36.39,12.56,50C543.19,473.12,560.86,474.06,560.78,474.19Z" transform="translate(-248.31 -118.55)" style="fill:#ff5732"/><path d="M550.06,626.09c0,.48-6.09.86-13.59.86s-13.59-.38-13.59-.86,6.08-.86,13.59-.86S550.06,625.62,550.06,626.09Z" transform="translate(-248.31 -118.55)" style="fill:#1e0f11"/><path d="M525.32,623.89a1.66,1.66,0,0,0,1.64,1.86h22.51s-7.92-8-15.65-8.06c0,.26.26-7.14-.63-6.92-1.8.47-4.33,1.65-5.61.35Z" transform="translate(-248.31 -118.55)" style="fill:#ffa08f"/><path d="M538.88,617.25a12.84,12.84,0,0,0,0,9.24s10,.64,11.18-.4S549.88,616.49,538.88,617.25Z" transform="translate(-248.31 -118.55)" style="fill:#1e0f11"/><path d="M593.35,626.09c0,.48-6.08.86-13.59.86s-13.59-.38-13.59-.86,6.09-.86,13.59-.86S593.35,625.62,593.35,626.09Z" transform="translate(-248.31 -118.55)" style="fill:#1e0f11"/><path d="M569.38,617.69l-.76,6.2a1.65,1.65,0,0,0,1.64,1.86h22.5s-7.92-8-15.65-8.06c0,.26-2.15-6.8-3-6.57-1.8.47-3.67,1.3-5,0Z" transform="translate(-248.31 -118.55)" style="fill:#ffa08f"/><path d="M582.17,617.25a12.84,12.84,0,0,0,0,9.24s10,.64,11.18-.4S593.17,616.49,582.17,617.25Z" transform="translate(-248.31 -118.55)" style="fill:#1e0f11"/><path d="M579.59,524.78c5.36,8.14-2,89.7-2,89.7l-9.72,1.42-10.13-71.33s-41-1.32-46.1-9.31c-4.75-7.48-17.19-30.52-17.19-30.52,2.32.1,6.31-12.19,6.31-12.19C536,492.55,575.52,518.6,579.59,524.78Z" transform="translate(-248.31 -118.55)" style="fill:#ffb13f"/><path d="M557.75,544.57l10.13,71.33S566,535,563,527.55C557.68,514,516,504.74,516,504.74l19.25,37.58S555.23,545.55,557.75,544.57Z" transform="translate(-248.31 -118.55)" style="fill:#de9a37"/><path d="M557.21,530.14c2.92,7.88-22.81,85.58-22.81,85.58l-7.81-.63,1.59-71.26S474.07,540,469,532.05c-4.75-7.49-7.52-29.36-7.52-29.36,2.32.1,24.33-10.05,24.33-10.05C518.09,500.22,554.65,523.2,557.21,530.14Z" transform="translate(-248.31 -118.55)" style="fill:#ffb13f"/><path d="M513.89,376.63c-.29.73-.56,1.42-.76,2.06a37.18,37.18,0,0,0-1.24,5.17,37.73,37.73,0,0,0-.57,4.78,43.8,43.8,0,0,0,.17,8.23c-13.49,6.66-28.12-2.51-28.12-2.51a43.66,43.66,0,0,0,1.56-6.5A101.58,101.58,0,0,0,486.15,377a.94.94,0,0,0,0-.22,1.19,1.19,0,0,0,0-.16Z" transform="translate(-248.31 -118.55)" style="fill:#ffa08f"/><path d="M513.89,376.63c-.29.73-.56,1.42-.76,2.06a21.66,21.66,0,0,0-1.24,5.17c-.31,1.69-.64,9.7-.72,11.19-6.42,2.82-12.54.3-19-2.14-3.25-1.21-5.69-3.83-7.2-5.05A101.58,101.58,0,0,0,486.15,377a.94.94,0,0,0,0-.22,1.19,1.19,0,0,0,0-.16Z" transform="translate(-248.31 -118.55)" style="fill:#fe7d69"/><path d="M522.73,438.9v51.74c-7.18,8.2-35.48,13.06-52.15,15.26-7.38,1-12.49,1.43-12.49,1.43.06-.74.12-1.53.17-2.38,1-13.12,3.16-39.6,5-62.42,1.81-21.93,3.37-40.47,3.37-40.47,6.64-5.18,15.89-11.24,15.89-11.24,17.76,12.95,30.18,4.81,30.18,4.81C520.88,400.81,522.73,418.93,522.73,438.9Z" transform="translate(-248.31 -118.55)" style="fill:#ff7d43"/><path d="M522.73,480.59v10.05c-7.18,8.2-35.48,13.06-52.15,15.26L458.26,505c1-13.12,3.16-39.6,5-62.42a20.81,20.81,0,0,0,3.24-3.42c4.2-5.69,13.88-12.24,13.88-12.24s-1.69,13.71-2.36,23.7,9.5,32.1,44,30.05Z" transform="translate(-248.31 -118.55)" style="fill:#ff5732"/><path d="M436.44,428c2.6,5.38,7.42,13.26,7.42,13.26l-8.24,4.77-6-9.23-1-2.28S435.38,425.84,436.44,428Z" transform="translate(-248.31 -118.55)" style="fill:#ffa08f"/><path d="M479.66,430.15s-4.65,22.18-8.61,35.49a12,12,0,0,1-.62,1.62,18.62,18.62,0,0,1-4.3,5.65,24.57,24.57,0,0,1-4.76,3.48,19.11,19.11,0,0,1-3.24,1.46h0c-2.94,1-5.58.87-7-.89-.24-.31-.47-.65-.69-1-2.21-3.53-3-8.79-2.85-14.93a81.19,81.19,0,0,1,1.16-10.81c.11-.63.22-1.25.34-1.89.75-4,1.76-8.1,2.94-12.17.25-.88.51-1.76.79-2.63,4.4-14.3,8.76-25.77,13.84-31.48C485.42,406,479.66,430.15,479.66,430.15Z" transform="translate(-248.31 -118.55)" style="fill:#ff7d43"/><path d="M470.43,467.26a18.62,18.62,0,0,1-4.3,5.65c-5.57-1.12-14.8-8.39-18.53-11.87a81.19,81.19,0,0,1,1.16-10.81c.11-.63.22-1.25.34-1.89.75-4,1.76-8.1,2.94-12.17.25-.88.51-1.76.79-2.63l.17.17S467.94,451.55,470.43,467.26Z" transform="translate(-248.31 -118.55)" style="fill:#ff5732"/><path d="M458.39,478a9.06,9.06,0,0,1-3.52.47h0a9.35,9.35,0,0,1-6.8-4l-.25-.34a135.59,135.59,0,0,1-17.51-33.89l9.64-7.53s3.77,2,14.76,14.9l1.6,1.9c2.73,3.29,5.49,6.22,7.71,8.57s6,6.49,6.43,7.53C472.2,469.86,464.82,475.9,458.39,478Z" transform="translate(-248.31 -118.55)" style="fill:#ff7d43"/><path d="M508,544c-5.33,1-10.34,1.78-12.69,2.15-5.88.93-12.1,2.49-12.4-12.72s-5.84-34.6-11.17-38.15c-7.44-5-33.2-11.49-41.88-19.23-2.54-2.28-2-4.74.3-7.12-2-.88-4-1.68-6-2.38-2.35,2.77-3.62,5.86-3.3,9.18,1,10.84,10.23,60.18,26.05,68.55s36.93,8.08,53.05,5.29c4.8-.83,9-1.41,12.61-1.95C511,546.35,509.5,545.14,508,544Z" transform="translate(-248.31 -118.55)" style="fill:#00aeb3"/><polygon points="130.24 373.86 437.52 373.86 444.09 362.74 123.67 362.74 130.24 373.86" style="fill:#0053b5"/><polygon points="438.14 509.22 444.02 509.22 433.88 373.86 421.44 373.86 438.14 509.22" style="fill:#0053b5"/><polygon points="407.86 509.22 413.73 509.22 403.59 373.86 391.15 373.86 407.86 509.22" style="fill:#002969"/><polygon points="131.99 509.22 126.11 509.22 136.25 373.86 148.69 373.86 131.99 509.22" style="fill:#0053b5"/><polygon points="160.11 509.22 154.24 509.22 164.38 373.86 176.82 373.86 160.11 509.22" style="fill:#002969"/><path d="M224.09,493.93h30.49a5.07,5.07,0,0,1,5.07,5.07v2.38a0,0,0,0,1,0,0H219a0,0,0,0,1,0,0V499A5.06,5.06,0,0,1,224.09,493.93Z" style="fill:#002969"/><path d="M221.18,493.93h30.49a5.06,5.06,0,0,1,5.06,5.06v2.38a0,0,0,0,1,0,0H216.12a0,0,0,0,1,0,0V499A5.06,5.06,0,0,1,221.18,493.93Z" style="fill:#0053b5"/><rect x="275.04" y="359.01" width="84.33" height="3.47" style="fill:#99cbff"/><rect x="278.1" y="357.23" width="7.93" height="1.78" style="fill:#85b1de"/><rect x="287.43" y="357.23" width="7.93" height="1.78" style="fill:#85b1de"/><rect x="296.75" y="357.23" width="7.93" height="1.78" style="fill:#85b1de"/><rect x="306.08" y="357.23" width="26.28" height="1.78" style="fill:#85b1de"/><rect x="334.06" y="357.23" width="7.93" height="1.78" style="fill:#a0e0ff"/><rect x="343.39" y="357.23" width="7.93" height="1.78" style="fill:#a0e0ff"/><rect x="352.71" y="357.23" width="7.93" height="1.78" style="fill:#a0e0ff"/><rect x="362.04" y="357.23" width="7.93" height="1.78" style="fill:#a0e0ff"/><rect x="317.2" y="359.01" width="84.33" height="3.47" style="fill:#85b1de"/><path d="M647.46,477.56h-84l11-48.62a3.13,3.13,0,0,1,3-2.43h75.65a4.68,4.68,0,0,1,4.56,5.71Z" transform="translate(-248.31 -118.55)" style="fill:#85b1de"/><path d="M649.5,477.56h-84l11.06-48.62a3.11,3.11,0,0,1,3-2.43h77.23a3.4,3.4,0,0,1,3.32,4.16Z" transform="translate(-248.31 -118.55)" style="fill:#99cbff"/><path d="M649.5,477.56h-65l44.22-51.05h28.11a3.4,3.4,0,0,1,3.32,4.16Z" transform="translate(-248.31 -118.55)" style="fill:#85b1de"/><path d="M518,363.78s-1.8,10.52-4.7,13.19-2.47-14.35-2.47-14.35Z" transform="translate(-248.31 -118.55)" style="fill:#1b3861"/><path d="M512.91,366.33s2.68,14.8-1.38,19.28S490,396.3,484.75,393.1s-17.06-40.25-16.64-43.6,21.08-22.25,33.31-13.32S512.91,366.33,512.91,366.33Z" transform="translate(-248.31 -118.55)" style="fill:#ffa08f"/><path d="M457,337.88c3.38,2.9,17-12.39,30.26-15.17,10.91-2.3,22.12,7.94,22.16,8.55,2.91,0,7.19,5.77,7.88,10.66,2.58,18.31-5.14,24.3-6.94,24.4-8.35.45-13.84-13.52-13.31-25.84-6.95,1.63-12.95,2.59-19.68,6.8-3,1.84-8,6.79-11.91,5.93C459.62,351.94,454,341.16,457,337.88Z" transform="translate(-248.31 -118.55)" style="fill:#1b3861"/><path d="M509.5,359c1.09-2.28,6.86-4.74,8.71-2.21,3,4.06,1.09,12.68-6.66,11.35C508.72,367.67,508.55,361,509.5,359Z" transform="translate(-248.31 -118.55)" style="fill:#ffa08f"/><path d="M511.73,361.48s3.38-3.93,4.39-2.55c2,2.68-.79,5.38-1.87,6.23,0,0,.77-1.93-.23-2.85A3.4,3.4,0,0,0,511.73,361.48Z" transform="translate(-248.31 -118.55)" style="fill:#fe7d69"/><path d="M512.37,368.81c-1.13,2.81-4.12-4.52-4.52-5.06a5.42,5.42,0,0,0-2.1-1.82,1.1,1.1,0,0,0-1.55.76c-.19,2.37.42,4.45.53,6.79.3,6.59-6.53,9.55-12.23,8.74-2.82-.4-4.08-3.18-6.38-4.67-.25-.17-4,.93-3.93,1.77.62,4.6-3.9,4.26-4.13,7.77-.08,1.16,1.55,4.92,2.41,7.51,1.75,5.26,6.89,5.28,11.72,4.62,5.57-.75,15.7-5.33,18.4-8.73,4.58-5.77,4.64-10.95,3.85-17.26C514.32,368.24,512.81,367.72,512.37,368.81Z" transform="translate(-248.31 -118.55)" style="fill:#1b3861"/><path d="M473.51,381.56s5.63-6.83,7.45-7.43,4.05-1.18,5.65-1.53c2.44-.54,9.85.33,11,.88s-6.14,5.26-11.84,7.28S475.82,383.11,473.51,381.56Z" transform="translate(-248.31 -118.55)" style="fill:#1b3861"/><path d="M478.15,361.55a2.1,2.1,0,0,1-1.42,2.48,2,2,0,0,1-2.17-2,1.86,1.86,0,1,1,3.59-.52Z" transform="translate(-248.31 -118.55)" style="fill:#0b160e"/><path d="M490.74,359.07a2.34,2.34,0,0,1-1.58,2.75,2.25,2.25,0,0,1-2.41-2.17,2.07,2.07,0,1,1,4-.58Z" transform="translate(-248.31 -118.55)" style="fill:#0b160e"/><path d="M483.51,373.9a9.21,9.21,0,0,0,1.84-.81.5.5,0,0,0-.59-.81c-.57.42-3.59,1.41-4.06,1.07a4.74,4.74,0,0,0,0-.82,24.6,24.6,0,0,1,.81-6.77.5.5,0,0,0-.35-.61.51.51,0,0,0-.62.36,25.15,25.15,0,0,0-.84,7c0,.32,0,.59,0,.82a.91.91,0,0,0,.5.89C480.92,374.61,482.33,374.3,483.51,373.9Z" transform="translate(-248.31 -118.55)" style="fill:#0b160e"/><path d="M493.27,353.16a1,1,0,0,0,.59-.54,1,1,0,0,0-.5-1.32,9.9,9.9,0,0,0-9.16.63,1,1,0,1,0,1.11,1.67h0a7.89,7.89,0,0,1,7.23-.47A1,1,0,0,0,493.27,353.16Z" transform="translate(-248.31 -118.55)" style="fill:#0b160e"/><path d="M471.39,358.15a1,1,0,0,0,.53-.42,6.39,6.39,0,0,1,5.6-2.92,1,1,0,0,0,1.07-.94,1,1,0,0,0-.93-1.07,8.44,8.44,0,0,0-7.45,3.88,1,1,0,0,0,.33,1.38A1,1,0,0,0,471.39,358.15Z" transform="translate(-248.31 -118.55)" style="fill:#0b160e"/><g id="gatto"><path d="M463.29,431.15a11,11,0,0,0-.53-4,.42.42,0,0,0-.76-.09c-1.46,2.1-3.7,4.43-3.67,7.15a.36.36,0,0,0,0,.45,1.36,1.36,0,0,0,1.51.7c.77-.11,2.57-.6,3.08-1.28S463.27,431.93,463.29,431.15Z" transform="translate(-248.31 -118.55)" style="fill:#002969"/><path d="M443.5,465.07c1.2-4-4-6.35-7.22-5.42a.41.41,0,0,0-.14.71c-.32,2.63-2,4.77-2.61,7.34a22.62,22.62,0,0,0,0,7.48c.16,1.54,0,3.9,1.48,4.84s4.06.51,5.8.24a.41.41,0,0,0,.29-.29,2.57,2.57,0,0,0-.29-2.06c-.49-.73-.33-.21-.88-.81-1.09-1.2-1.44-2-1-3.49C439.89,470.56,442.58,468.14,443.5,465.07Z" transform="translate(-248.31 -118.55)" style="fill:#002969"/><path d="M397.94,459.41c-.5-3-2.84-5-3.71-7.78a4.53,4.53,0,0,1,.23-.55c.22-.48-.48-.9-.71-.42-.07.15-.13.3-.19.45a.38.38,0,0,0-.22.46s0,0,0,0a32.54,32.54,0,0,0-1.17,6.56,10.09,10.09,0,0,1-1.52,4.53c-1.19,1.73-2.94,1.95-4.61,3a2.26,2.26,0,0,0-1.09,1.48,45.7,45.7,0,0,0-1,5.09c-.3,1.6-.61,3.19-.91,4.79a5.19,5.19,0,0,0-.16,2.41c.54,1.55,2.79,1.16,4,1s2.39-.88,2-2.26a5.8,5.8,0,0,0-.56-.89,3.14,3.14,0,0,1,0-3.36,7.93,7.93,0,0,1,3.35-3.09c1.72-.94,3.69-1.68,4.91-3.29C398.21,465.38,398.37,461.93,397.94,459.41Z" transform="translate(-248.31 -118.55)" style="fill:#002969"/><path d="M472.4,441.74a5.46,5.46,0,0,0-3.11-3,.13.13,0,0,0,0-.06c-1.66-3.88-5.14-7-9.57-6.91a8.21,8.21,0,0,0-5.47,2.32c-.95.89-1.74,1.95-2.76,2.77a23.52,23.52,0,0,1-3,1.79,34.46,34.46,0,0,1-7.53.06c-1.83-.1-3.65-.24-5.46-.38-1-.16-2-.34-3.06-.45a46.5,46.5,0,0,0-6-.13c-4.39.14-8.78.36-13.15.74a83.5,83.5,0,0,0-12,1.72c-3.38.81-5.05,2.9-6.59,5.86a.37.37,0,0,0-.12.17c-1.73,4.71-.08,9.43.86,14.11a18,18,0,0,1-.29,8.9c-.56,2.05.15,3.39,1.16,5.17a26.25,26.25,0,0,0,3.85,5.48c1.18,1.2,2.58,1.25,4.22,1,1.18-.2,2.32-.66,2.14-2.06-.16-1.22-1.28-1.77-2.31-2.15a.65.65,0,0,0,0-.13,24.22,24.22,0,0,1-1.41-3.06c-.14-.39-1-2.36-.76-2.7a12.1,12.1,0,0,1,1.3-.4,9.34,9.34,0,0,0,2.18-1.27,15.07,15.07,0,0,0,4.22-4.44h0c5,.23,9.83-.88,14.7-1.68s10.06-1.29,14.86-2.66a10.1,10.1,0,0,0,3.89,5.08c1.91,1.42,4.07,2.44,6,3.85a23.93,23.93,0,0,1,5.51,5.49,8.76,8.76,0,0,1,1.29,3.38,3.08,3.08,0,0,0,.8,1.74,2.25,2.25,0,0,0,2.56.17c2.58-1.35,1.81-5.65.48-7.73a.38.38,0,0,0,0-.25,25.91,25.91,0,0,0-5.88-7.58,9.07,9.07,0,0,1-1.8-1.54c-1-1.45-.34-2.9-.09-4.38.16-1,.26-1.95.33-2.92l0-.05a12.79,12.79,0,0,1,5.21-4.57l.07,0a47.45,47.45,0,0,1,9.94-3.27c1.9-.41,3.51-1.11,3.91-3.16A2.62,2.62,0,0,0,472.4,441.74Z" transform="translate(-248.31 -118.55)" style="fill:#0053b5"/><path id="codaline" d="M396.89,441.47c-1.34-1-3.18-1.39-4.67-2.15a26.74,26.74,0,0,1-5.42-3.72,46.39,46.39,0,0,1-8.37-9.22c-2.22-3.44-3.08-8.17-3.89-12.14-.41-2-.6-4-1.05-6-.21-.9-.5-2.18-1.55-2.47-2.34-.63-3.25,3.52-3.38,5-.33,3.65,1,7.41,2.18,10.79a53.13,53.13,0,0,0,5.08,10.72c4.6,7.17,12.7,10,20.45,12.49a.39.39,0,0,0,.38.11C398.48,444.5,398.12,442.37,396.89,441.47Z" transform="translate(-248.31 -118.55)" style="fill:#0053b5"/><path d="M460,431a11,11,0,0,0-.53-4,.42.42,0,0,0-.76-.1c-1.46,2.1-3.7,4.43-3.67,7.15a.36.36,0,0,0,0,.45,1.35,1.35,0,0,0,1.51.7c.78-.1,2.57-.6,3.08-1.28S460,431.79,460,431Z" transform="translate(-248.31 -118.55)" style="fill:#0053b5"/><path d="M472.76,440.79c-.14-.37-.3-.77-.69-.9a.43.43,0,0,0-.8,0,1.79,1.79,0,0,0,1.33,2.43.39.39,0,0,0,.35-.2C473.19,441.76,472.9,441.15,472.76,440.79Z" transform="translate(-248.31 -118.55)" style="fill:#544f5b"/><path d="M468.14,437.6a2.83,2.83,0,0,0-2,1.28c-.22.32.43.63.44.65a2.36,2.36,0,0,0,1.28.34,1.06,1.06,0,0,0,1.06-.47C469.27,438.79,469,437.52,468.14,437.6Z" transform="translate(-248.31 -118.55)" style="fill:#ffb13f"/><path d="M469.09,438.42a1.13,1.13,0,0,0-1.57-.78c-.12,0-.59.33-.61.55-.06.68.22,1.7,1.06,1.72A1.2,1.2,0,0,0,469.09,438.42Z" transform="translate(-248.31 -118.55)" style="fill:#ffb13f"/><path d="M468.5,437.92c-.12-.52-.91-.3-.79.21a3.24,3.24,0,0,1,0,1.16c-.07.53.75.52.82,0A3.94,3.94,0,0,0,468.5,437.92Z" transform="translate(-248.31 -118.55)" style="fill:#544f5b"/><g id="coda-tratt"><path d="M377.78,425.25c-.13-.25-.25-.5-.37-.76a10.16,10.16,0,0,1-4.69,2c.12.26.23.51.35.76A11.31,11.31,0,0,0,377.78,425.25Z" transform="translate(-248.31 -118.55)" style="fill:#002969"/><path d="M380.32,429c-.18-.22-.34-.44-.51-.66a13.23,13.23,0,0,1-1.66,1.2A10,10,0,0,1,375,431c.15.26.32.51.47.77A11.77,11.77,0,0,0,380.32,429Z" transform="translate(-248.31 -118.55)" style="fill:#002969"/><path d="M375.71,419.57a11,11,0,0,1-5,1.76,2.41,2.41,0,0,0,.08.25l.21.55a11.86,11.86,0,0,0,5-1.72C375.85,420.13,375.78,419.85,375.71,419.57Z" transform="translate(-248.31 -118.55)" style="fill:#002969"/><path d="M374.78,415.45a9.65,9.65,0,0,1-5.49,1.65c.07.27.15.54.23.81a10.44,10.44,0,0,0,5.44-1.59Z" transform="translate(-248.31 -118.55)" style="fill:#002969"/><path d="M386.77,438.42c.18-.5-.61-.71-.79-.22a4.29,4.29,0,0,1-1.44,1.93l.79.42A5.34,5.34,0,0,0,386.77,438.42Z" transform="translate(-248.31 -118.55)" style="fill:#002969"/><path d="M388.68,442.1a8.37,8.37,0,0,0,1.06-1.24c.3-.44-.41-.85-.71-.42a7.71,7.71,0,0,1-1.17,1.31Z" transform="translate(-248.31 -118.55)" style="fill:#002969"/><path d="M378.55,435.69a7.72,7.72,0,0,0,2-1.17,5.3,5.3,0,0,0,1.75-3.26c-.24-.25-.47-.51-.69-.77a5.1,5.1,0,0,1-1.72,3.51,8,8,0,0,1-1.94,1.06Z" transform="translate(-248.31 -118.55)" style="fill:#002969"/><path d="M382.56,438.94a15.81,15.81,0,0,0,2.63-2.21c.36-.39-.22-1-.59-.59a14.48,14.48,0,0,1-2.77,2.3Z" transform="translate(-248.31 -118.55)" style="fill:#002969"/></g><path d="M451.89,471.57a13.5,13.5,0,0,0,1-2.38.42.42,0,0,0-.8-.22,11.43,11.43,0,0,1-.85,2C451.47,471.17,451.68,471.37,451.89,471.57Z" transform="translate(-248.31 -118.55)" style="fill:#002969"/><path d="M395.76,462.7c0,.27,0,.54.05.81a11.26,11.26,0,0,0,2.32.14c.53,0,.53-.84,0-.82a9.74,9.74,0,0,1-2.22-.13Z" transform="translate(-248.31 -118.55)" style="fill:#002969"/><path d="M449.23,466.09c.18-.5-.61-.71-.79-.22a10.64,10.64,0,0,1-1.09,2.22l.69.44A11.49,11.49,0,0,0,449.23,466.09Z" transform="translate(-248.31 -118.55)" style="fill:#002969"/><path d="M453.79,470.9a9.41,9.41,0,0,1-.78,1.81l.57.65a10,10,0,0,0,1-2.24A.41.41,0,0,0,453.79,470.9Z" transform="translate(-248.31 -118.55)" style="fill:#002969"/><path d="M444.83,466.55l.72.44a7.35,7.35,0,0,0,1.73-2.62c.19-.5-.6-.71-.79-.22A6.36,6.36,0,0,1,444.83,466.55Z" transform="translate(-248.31 -118.55)" style="fill:#002969"/><path d="M449.8,469.77a8.76,8.76,0,0,0,.7-2.37c.08-.52-.72-.74-.79-.22a8.55,8.55,0,0,1-.58,2.08l0,0Z" transform="translate(-248.31 -118.55)" style="fill:#002969"/><path d="M398.89,474.55a4.26,4.26,0,0,1-1.91,1.08c.14.24.29.48.44.72a5.24,5.24,0,0,0,2.05-1.21C399.85,474.77,399.27,474.19,398.89,474.55Z" transform="translate(-248.31 -118.55)" style="fill:#002969"/><path d="M401.73,477a10.85,10.85,0,0,1-3.47.63c.19.27.39.54.59.8a11.49,11.49,0,0,0,3.1-.64C402.44,477.6,402.23,476.81,401.73,477Z" transform="translate(-248.31 -118.55)" style="fill:#002969"/><path d="M396.82,468.8l-1.38-.87c-.05.28-.12.57-.19.85l1.15.73C396.85,469.79,397.27,469.08,396.82,468.8Z" transform="translate(-248.31 -118.55)" style="fill:#002969"/><path d="M397.68,466.45l-1.92-.56c0,.27-.06.55-.1.82l1.8.53A.41.41,0,0,0,397.68,466.45Z" transform="translate(-248.31 -118.55)" style="fill:#002969"/><path d="M398.88,473.6c.42-.31,0-1-.42-.71a3.4,3.4,0,0,1-2.69.62c.15.28.31.58.48.88A4.11,4.11,0,0,0,398.88,473.6Z" transform="translate(-248.31 -118.55)" style="fill:#002969"/></g><g id="mano"><path d="M411.35,442.59c-.2-2.51.88-8.66,3.62-10.41s7.88-5,10.92-5.61c1.2-.25.79,4.28.48,5.23a1.19,1.19,0,0,1-.67,1.65c-2.47.91-5.32,1.56-7.63,2.86-2.1,1.18-2.38,4.31-3.65,6.38C413.78,443.73,411.41,443.27,411.35,442.59Z" transform="translate(-248.31 -118.55)" style="fill:#ffa08f"/><path d="M419.25,446.42c-.29-3.14.26-8.72,2.86-10.69a30.48,30.48,0,0,1,8.81-4.85c1.18-.35,2.65,2.71,1.91,3.06-2.4,1.11-5.13,4.17-7.34,5.65-2,1.35-2.06,4.5-3.18,6.68C421.75,447.36,419.34,447.44,419.25,446.42Z" transform="translate(-248.31 -118.55)" style="fill:#ffa08f"/><path d="M435,436.51l-.26.2c-2.19,1.52-4.2.08-6.17,1.91a3.09,3.09,0,0,0-.66.83c-.79,1.47,0,3.16-.69,5.11-.4,1.17-2.3,1.25-2.57.62-1.07-2.51-1.42-8.62.88-11,1.69-1.74,4.41-2.8,6.85-3.79.69-.28,1.36-.56,2-.84l.3-.14a1.4,1.4,0,0,1,2.06,1.35A5.56,5.56,0,0,1,435,436.51Z" transform="translate(-248.31 -118.55)" style="fill:#ffa08f"/><path d="M415.31,446.74c-.71-1.94-.59-8.72,1.8-11s6.44-3.08,9.31-4.29c1.14-.48,1.95.71,1.8,1.71a1.22,1.22,0,0,1-.39,1.75c-2.26,1.38-4.94,2.57-7,4.3-1.86,1.57-1.61,4.72-2.51,7C417.88,447.39,415.54,447.38,415.31,446.74Z" transform="translate(-248.31 -118.55)" style="fill:#ffa08f"/><path d="M422.83,427.68s5.54-3.34,8.86-3.24,5,6.33,5,6.33l-4,2.18-8.21,1.63L422.71,429Z" transform="translate(-248.31 -118.55)" style="fill:#ffa08f"/><path d="M423.85,441.6s-1.05-5.24,1.65-7.41c0,0-4.08,3.64-2.83,8.79.23,1-.84,3.78-.84,3.78s.72-.26,1.32-2.37A23.75,23.75,0,0,0,423.85,441.6Z" transform="translate(-248.31 -118.55)" style="fill:#fe7d69"/><path d="M415.06,441.26s.95-4.37,2.05-5.5a14.27,14.27,0,0,1,3.37-2.19s-3.66.72-4.3,2.35-1.76,6.77-1.76,6.77Z" transform="translate(-248.31 -118.55)" style="fill:#fe7d69"/><path d="M435.22,434.94a9.84,9.84,0,0,1-.25,1.57l-.26.2c-2.19,1.52-4.2.08-6.17,1.91a3.09,3.09,0,0,0-.66.83c-.44-3.05.75-4.41,2.47-5.7a6.67,6.67,0,0,0,2-3.35c.2-.66.29-1.14.29-1.14s1.07,0,1.4,0c.12,0,.21.14.29.3a3.92,3.92,0,0,1,.23.8s.33.92.78,2S435.34,433.56,435.22,434.94Z" transform="translate(-248.31 -118.55)" style="fill:#fe7d69"/><path d="M429.1,439.07c0,.57,2.27,2.31,3,1.74a16.13,16.13,0,0,0,4.77-6.23,7.73,7.73,0,0,0,.64-5.07c-.17-.65-3.06-4-3.55-3.77-.27-.18.28.88,0,1.08-2.85,2-.43,2.35-1.28,5.2S429.21,436.41,429.1,439.07Z" transform="translate(-248.31 -118.55)" style="fill:#ffa08f"/></g><g id="htm"><path d="M502.08,189.9l.14-63.62a1.94,1.94,0,0,0-.24-.92h0a1.94,1.94,0,0,0-.34-.47l-3.71-5.09-10.73,4.5L347.51,124a2,2,0,0,0-2,2l-.12,57.72-3.59,1.5,3.81,5.2a1.53,1.53,0,0,0,1.29.73l153.61.33A1.53,1.53,0,0,0,502.08,189.9Z" transform="translate(-248.31 -118.55)" style="fill:#002969"/><path d="M496.56,186,343,185.65a1.53,1.53,0,0,1-1.53-1.53l.14-63.62a2,2,0,0,1,2-2l152.76.33a2,2,0,0,1,2,2l-.14,63.62A1.53,1.53,0,0,1,496.56,186Z" transform="translate(-248.31 -118.55)" style="fill:#0053b5"/><path d="M361.28,168.24l0-33.38H368V148h13.21V134.87H388v33.38h-6.74v-14.6H368v14.59Z" transform="translate(-248.31 -118.55)" style="fill:#fcf9e4"/><path d="M402.45,168.25V140.52h-9.9v-5.65h26.52v5.65H409.2v27.73Z" transform="translate(-248.31 -118.55)" style="fill:#fcf9e4"/><path d="M423.33,168.27V134.89h10.09l6,22.77,6-22.76h10.1v33.38h-6.26V142l-6.64,26.28h-6.49L429.6,142v26.28Z" transform="translate(-248.31 -118.55)" style="fill:#fcf9e4"/><path d="M462.44,168.29l0-33.11h6.74v27.48H486v5.63Z" transform="translate(-248.31 -118.55)" style="fill:#fcf9e4"/></g><g id="css"><path d="M587.82,286.38l.12-57.11a1.73,1.73,0,0,0-.21-.83h0a2.24,2.24,0,0,0-.31-.43l-3.33-4.56-9.63,4-96.2-.27A1.76,1.76,0,0,0,476.5,229l-.11,51.83-3.22,1.34,3.42,4.67a1.39,1.39,0,0,0,1.16.66l108.69.29A1.37,1.37,0,0,0,587.82,286.38Z" transform="translate(-248.31 -118.55)" style="fill:#ff5732"/><path d="M582.86,282.86l-108.69-.29a1.37,1.37,0,0,1-1.37-1.38l.12-57.12a1.76,1.76,0,0,1,1.76-1.75l107.93.3a1.75,1.75,0,0,1,1.75,1.76l-.12,57.11A1.38,1.38,0,0,1,582.86,282.86Z" transform="translate(-248.31 -118.55)" style="fill:#ff7d43"/><path d="M510.1,256.37l5.27,1.67a11.84,11.84,0,0,1-4,6.56,12.7,12.7,0,0,1-16-1.53q-3.47-3.66-3.46-10,0-6.72,3.48-10.45a11.91,11.91,0,0,1,9.14-3.72,11.21,11.21,0,0,1,8,2.92,10.58,10.58,0,0,1,2.76,5L509.91,248a5.55,5.55,0,0,0-5.68-4.52,6.1,6.1,0,0,0-4.86,2.15c-1.25,1.43-1.87,3.76-1.87,7,0,3.41.61,5.83,1.84,7.28a6,6,0,0,0,4.78,2.17,5.43,5.43,0,0,0,3.73-1.38A8.09,8.09,0,0,0,510.1,256.37Z" transform="translate(-248.31 -118.55)" style="fill:#fcf9e4"/><path d="M518.67,257.51,524,257a6.48,6.48,0,0,0,1.94,3.91,5.82,5.82,0,0,0,3.94,1.25,6.08,6.08,0,0,0,4-1.11,3.3,3.3,0,0,0,1.33-2.6,2.48,2.48,0,0,0-.56-1.63,4.44,4.44,0,0,0-2-1.17c-.64-.22-2.09-.61-4.36-1.17-2.91-.73-5-1.61-6.14-2.67a7,7,0,0,1-2.48-5.42,6.94,6.94,0,0,1,1.17-3.86,7.34,7.34,0,0,1,3.36-2.73,13.64,13.64,0,0,1,5.31-.93q5.07,0,7.64,2.22a7.82,7.82,0,0,1,2.69,5.94l-5.44.24a4.59,4.59,0,0,0-1.5-3,5.49,5.49,0,0,0-3.45-.91,6.19,6.19,0,0,0-3.71,1,1.94,1.94,0,0,0-.87,1.67,2,2,0,0,0,.81,1.63q1,.87,5,1.81a26.07,26.07,0,0,1,5.88,1.94,7.59,7.59,0,0,1,3,2.74,8.52,8.52,0,0,1-.21,8.63,7.79,7.79,0,0,1-3.64,3,15.42,15.42,0,0,1-5.87,1q-5.12,0-7.85-2.36A10.25,10.25,0,0,1,518.67,257.51Z" transform="translate(-248.31 -118.55)" style="fill:#fcf9e4"/><path d="M543.78,257.51l5.3-.51a6.43,6.43,0,0,0,1.94,3.91,5.82,5.82,0,0,0,3.94,1.25,6.08,6.08,0,0,0,4-1.11,3.33,3.33,0,0,0,1.33-2.6,2.48,2.48,0,0,0-.56-1.63,4.5,4.5,0,0,0-2-1.17c-.64-.22-2.09-.61-4.36-1.17-2.92-.73-5-1.61-6.14-2.67a7.1,7.1,0,0,1-1.32-9.28,7.42,7.42,0,0,1,3.37-2.73,13.55,13.55,0,0,1,5.3-.93q5.08,0,7.65,2.22a7.85,7.85,0,0,1,2.69,5.94l-5.44.24a4.69,4.69,0,0,0-1.5-3,5.49,5.49,0,0,0-3.45-.91,6.19,6.19,0,0,0-3.71,1A1.94,1.94,0,0,0,550,246a2,2,0,0,0,.81,1.63c.69.58,2.35,1.18,5,1.81a26.07,26.07,0,0,1,5.88,1.94,7.59,7.59,0,0,1,3,2.74,8.08,8.08,0,0,1,1.07,4.29,7.94,7.94,0,0,1-1.29,4.34,7.69,7.69,0,0,1-3.64,3,15.36,15.36,0,0,1-5.86,1q-5.11,0-7.85-2.36A10.3,10.3,0,0,1,543.78,257.51Z" transform="translate(-248.31 -118.55)" style="fill:#fcf9e4"/></g><g id="javasc"><path d="M421.38,344.45l.11-50.43a1.5,1.5,0,0,0-.19-.73h0a1.74,1.74,0,0,0-.27-.38l-2.94-4-8.51,3.56-84.93-.23a1.54,1.54,0,0,0-1.55,1.54l-.1,45.76-2.84,1.19,3,4.12a1.23,1.23,0,0,0,1,.58l96,.26A1.22,1.22,0,0,0,421.38,344.45Z" transform="translate(-248.31 -118.55)" style="fill:#de9a37"/><path d="M417,341.34l-96-.26a1.21,1.21,0,0,1-1.22-1.21l.11-50.43a1.55,1.55,0,0,1,1.56-1.55l95.29.26a1.54,1.54,0,0,1,1.54,1.55l-.11,50.43A1.21,1.21,0,0,1,417,341.34Z" transform="translate(-248.31 -118.55)" style="fill:#ffb13f"/></g><path d="M839.85,239.06h0l-.14-.15-.24-.24-5.08-5.08-.08,2.69a8.44,8.44,0,0,0-.87,0H645.79a8.71,8.71,0,0,0-8.71,8.71v124.2a8.71,8.71,0,0,0,8.71,8.71h15l-7.6,18.94L637.8,419l4.63,4.66,43.64-45.78H833.44a8.71,8.71,0,0,0,8.71-8.71V244.94A8.63,8.63,0,0,0,839.85,239.06Z" transform="translate(-248.31 -118.55)" style="fill:#002969"/><rect x="384.15" y="113.02" width="205.07" height="141.63" rx="8.71" style="fill:#0053b5"/><polygon points="408.69 252.61 389.5 300.42 439.08 248.41 408.69 252.61" style="fill:#0053b5"/><path d="M779.32,255.85H704a.79.79,0,0,1-.79-.81.82.82,0,0,1,.82-.81h75.37a.8.8,0,0,1,.8.81A.84.84,0,0,1,779.32,255.85Z" transform="translate(-248.31 -118.55)" style="fill:#fcf9e4"/><path d="M690.23,255.85H672.58a.8.8,0,0,1-.79-.81.83.83,0,0,1,.82-.81h17.65a.79.79,0,0,1,.8.81A.84.84,0,0,1,690.23,255.85Z" transform="translate(-248.31 -118.55)" style="fill:#fcf9e4"/><path d="M779.09,269H738.94a.78.78,0,0,1-.79-.81.82.82,0,0,1,.82-.81h40.15a.79.79,0,0,1,.79.81A.82.82,0,0,1,779.09,269Z" transform="translate(-248.31 -118.55)" style="fill:#fcf9e4"/><path d="M727,269H672.35a.78.78,0,0,1-.79-.81.82.82,0,0,1,.82-.81h54.68a.79.79,0,0,1,.79.81A.83.83,0,0,1,727,269Z" transform="translate(-248.31 -118.55)" style="fill:#fcf9e4"/><path d="M801,281.61H725.62a.8.8,0,0,1-.8-.81.83.83,0,0,1,.82-.81H801a.79.79,0,0,1,.8.81A.84.84,0,0,1,801,281.61Z" transform="translate(-248.31 -118.55)" style="fill:#fcf9e4"/><path d="M711.9,281.61H681.38a.8.8,0,0,1-.8-.81.83.83,0,0,1,.83-.81h30.51a.79.79,0,0,1,.8.81A.84.84,0,0,1,711.9,281.61Z" transform="translate(-248.31 -118.55)" style="fill:#fcf9e4"/><path d="M800.75,294.76h-50a.79.79,0,0,1-.8-.81.83.83,0,0,1,.82-.81h50a.8.8,0,0,1,.8.81A.83.83,0,0,1,800.75,294.76Z" transform="translate(-248.31 -118.55)" style="fill:#fcf9e4"/><path d="M738.79,294.76H681.15a.79.79,0,0,1-.8-.81.83.83,0,0,1,.82-.81h57.65a.8.8,0,0,1,.8.81A.83.83,0,0,1,738.79,294.76Z" transform="translate(-248.31 -118.55)" style="fill:#fcf9e4"/><path d="M818.51,288.49a4.44,4.44,0,0,0-1.63.32,2.42,2.42,0,0,0-1,.89,4.4,4.4,0,0,0-.58,1.57,16.76,16.76,0,0,0-.16,2.45,20.24,20.24,0,0,1-.33,4,3.69,3.69,0,0,1-1,1.82,5.07,5.07,0,0,1-2,1.08,11,11,0,0,1-2.84.26h-.78l.06-3.53a6.83,6.83,0,0,0,2.07-.2,1.42,1.42,0,0,0,.72-.58,2.54,2.54,0,0,0,.26-1.27c0-.6.08-1.75.19-3.44a8.91,8.91,0,0,1,.44-2.45,4.9,4.9,0,0,1,.89-1.56,5.14,5.14,0,0,1,1.4-1.13,6,6,0,0,1-1.57-1.39,5.79,5.79,0,0,1-.9-2.47,44.28,44.28,0,0,1-.15-4.54,4,4,0,0,0-.18-1.48,1.24,1.24,0,0,0-.65-.57,7.08,7.08,0,0,0-2.14-.2l.06-3.52h.78a11.34,11.34,0,0,1,3,.31,3.9,3.9,0,0,1,1.76,1.06,3.75,3.75,0,0,1,1,1.82,15.9,15.9,0,0,1,.2,3.42,17.09,17.09,0,0,0,.16,3.52,3,3,0,0,0,1,1.69,3.56,3.56,0,0,0,2,.58Z" transform="translate(-248.31 -118.55)" style="fill:#fcf9e4"/><path d="M654.41,259.85a3.68,3.68,0,0,0,2-.59,3.13,3.13,0,0,0,1-1.69,17,17,0,0,0,.28-3.52,16,16,0,0,1,.32-3.41,3.91,3.91,0,0,1,2.82-2.88,11.39,11.39,0,0,1,3-.31h.78l-.06,3.52a7.21,7.21,0,0,0-2.15.2,1.24,1.24,0,0,0-.67.57,4,4,0,0,0-.23,1.47,45,45,0,0,1-.31,4.54,6,6,0,0,1-1,2.48,6.25,6.25,0,0,1-1.61,1.38,5.07,5.07,0,0,1,1.35,1.13,5,5,0,0,1,.84,1.57,9,9,0,0,1,.35,2.45c0,1.69.07,2.83.07,3.43a2.57,2.57,0,0,0,.21,1.28,1.37,1.37,0,0,0,.71.57,6.35,6.35,0,0,0,2.06.2l-.07,3.54h-.78a10.58,10.58,0,0,1-2.82-.27,4.59,4.59,0,0,1-2-1.08,3.54,3.54,0,0,1-.92-1.82,20.22,20.22,0,0,1-.18-4,17,17,0,0,0-.08-2.45,4.21,4.21,0,0,0-.53-1.57,2.12,2.12,0,0,0-.92-.89,4.25,4.25,0,0,0-1.61-.33Z" transform="translate(-248.31 -118.55)" style="fill:#fcf9e4"/><path d="M779.32,316.77H704a.78.78,0,0,1-.79-.81.83.83,0,0,1,.82-.81h75.37a.8.8,0,0,1,.8.81A.83.83,0,0,1,779.32,316.77Z" transform="translate(-248.31 -118.55)" style="fill:#fcf9e4"/><path d="M690.23,316.77H672.58a.79.79,0,0,1-.79-.81.84.84,0,0,1,.82-.81h17.65a.8.8,0,0,1,.8.81A.83.83,0,0,1,690.23,316.77Z" transform="translate(-248.31 -118.55)" style="fill:#fcf9e4"/><path d="M779.09,329.93H738.94a.78.78,0,0,1-.79-.81.82.82,0,0,1,.82-.81h40.15a.79.79,0,0,1,.79.81A.82.82,0,0,1,779.09,329.93Z" transform="translate(-248.31 -118.55)" style="fill:#fcf9e4"/><path d="M727,329.93H672.35a.78.78,0,0,1-.79-.81.82.82,0,0,1,.82-.81h54.68a.79.79,0,0,1,.79.81A.83.83,0,0,1,727,329.93Z" transform="translate(-248.31 -118.55)" style="fill:#fcf9e4"/><path d="M801,342.53H725.62a.79.79,0,0,1-.8-.81.84.84,0,0,1,.82-.81H801a.8.8,0,0,1,.8.81A.83.83,0,0,1,801,342.53Z" transform="translate(-248.31 -118.55)" style="fill:#fcf9e4"/><path d="M711.9,342.53H681.38a.8.8,0,0,1-.8-.81.84.84,0,0,1,.83-.81h30.51a.8.8,0,0,1,.8.81A.83.83,0,0,1,711.9,342.53Z" transform="translate(-248.31 -118.55)" style="fill:#fcf9e4"/><path d="M800.75,355.69h-50a.8.8,0,0,1-.8-.81.83.83,0,0,1,.82-.81h50a.8.8,0,0,1,.8.81A.84.84,0,0,1,800.75,355.69Z" transform="translate(-248.31 -118.55)" style="fill:#fcf9e4"/><path d="M738.79,355.69H681.15a.8.8,0,0,1-.8-.81.83.83,0,0,1,.82-.81h57.65a.8.8,0,0,1,.8.81A.84.84,0,0,1,738.79,355.69Z" transform="translate(-248.31 -118.55)" style="fill:#fcf9e4"/><path d="M818.51,349.41a4.41,4.41,0,0,0-1.63.33,2.42,2.42,0,0,0-1,.89,4.4,4.4,0,0,0-.58,1.57,16.76,16.76,0,0,0-.16,2.45,20.12,20.12,0,0,1-.33,4,3.61,3.61,0,0,1-1,1.82,5,5,0,0,1-2,1.09,11.41,11.41,0,0,1-2.84.26h-.78l.06-3.54a6.94,6.94,0,0,0,2.07-.19,1.47,1.47,0,0,0,.72-.58,2.57,2.57,0,0,0,.26-1.27c0-.6.08-1.75.19-3.44a8.91,8.91,0,0,1,.44-2.45,5.07,5.07,0,0,1,.89-1.57,5.31,5.31,0,0,1,1.4-1.12,6.18,6.18,0,0,1-1.57-1.39,5.78,5.78,0,0,1-.9-2.48,44,44,0,0,1-.15-4.54,3.86,3.86,0,0,0-.18-1.47,1.16,1.16,0,0,0-.65-.57,7.08,7.08,0,0,0-2.14-.2l.06-3.52h.78a11.34,11.34,0,0,1,3,.31,3.88,3.88,0,0,1,1.76,1,3.83,3.83,0,0,1,1,1.83,15.85,15.85,0,0,1,.2,3.41,17.16,17.16,0,0,0,.16,3.53,2.94,2.94,0,0,0,1,1.68,3.55,3.55,0,0,0,2,.59Z" transform="translate(-248.31 -118.55)" style="fill:#fcf9e4"/><path d="M654.41,320.77a3.68,3.68,0,0,0,2-.58,3.13,3.13,0,0,0,1-1.69,17,17,0,0,0,.28-3.52,16,16,0,0,1,.32-3.41,3.92,3.92,0,0,1,1-1.83,4.07,4.07,0,0,1,1.81-1.06,11.82,11.82,0,0,1,3-.31h.78l-.06,3.53a6.87,6.87,0,0,0-2.15.2,1.27,1.27,0,0,0-.67.56,4.1,4.1,0,0,0-.23,1.48,45,45,0,0,1-.31,4.54,6,6,0,0,1-1,2.48,6.25,6.25,0,0,1-1.61,1.38,4.68,4.68,0,0,1,2.19,2.69,9,9,0,0,1,.35,2.46c0,1.69.07,2.83.07,3.43a2.57,2.57,0,0,0,.21,1.28,1.37,1.37,0,0,0,.71.57,6.66,6.66,0,0,0,2.06.2l-.07,3.54h-.78a10.58,10.58,0,0,1-2.82-.27,4.59,4.59,0,0,1-2-1.08,3.58,3.58,0,0,1-.92-1.82,20.33,20.33,0,0,1-.18-4,16.89,16.89,0,0,0-.08-2.44,4.14,4.14,0,0,0-.53-1.57,2.2,2.2,0,0,0-.92-.9,4.48,4.48,0,0,0-1.61-.32Z" transform="translate(-248.31 -118.55)" style="fill:#fcf9e4"/><path d="M811.52,629.2H332.22a.89.89,0,1,1,0-1.77h479.3a.89.89,0,0,1,0,1.77Z" transform="translate(-248.31 -118.55)" style="fill:#1e0f11"/><text transform="translate(74.89 203.7) scale(1.03 1)" style="font-size:21.35157585144043px;fill:#fff;font-family:Impact">JavaScript</text></svg>