<?xml version="1.0" encoding="UTF-8" standalone="no"?>
<!DOCTYPE svg PUBLIC "-//W3C//DTD SVG 1.1//EN" "http://www.w3.org/Graphics/SVG/1.1/DTD/svg11.dtd">
<svg width="100%" height="100%" viewBox="0 0 1000 1000" version="1.1" xmlns="http://www.w3.org/2000/svg" xmlns:xlink="http://www.w3.org/1999/xlink" xml:space="preserve" xmlns:serif="http://www.serif.com/" style="fill-rule:evenodd;clip-rule:evenodd;stroke-linejoin:round;stroke-miterlimit:2;">
    <g transform="matrix(18.8159,0,0,18.8159,-3253,-6228.68)">
        <g transform="matrix(0.0578919,0,0,0.0578919,169.843,327.687)">
            <path d="M818.49,461.687L819.23,711.08C819.23,775.76 794.056,836.57 748.319,882.297C701.117,929.509 639.089,953.105 577.092,953.105C515.105,953.105 453.077,929.509 405.875,882.297C388.593,865.005 388.593,836.993 405.875,819.691C423.166,802.409 451.189,802.409 468.48,819.691C528.363,879.594 625.841,879.594 685.723,819.691C714.746,790.678 730.718,752.102 730.718,711.059L730.718,657.801C688.901,692.22 635.385,712.916 577.112,712.916C481.621,712.916 398.864,657.35 359.47,576.857L448.392,554.546C475.831,596.573 523.282,624.403 577.112,624.403C657.412,624.403 723.522,562.461 730.167,483.847L818.49,461.687ZM335.937,492.475C335.3,485.335 334.973,478.094 334.973,470.777C334.973,337.27 443.585,228.639 577.112,228.639C635.375,228.639 688.901,249.335 730.718,283.754L780.94,283.897C800.571,284.095 817.562,282.519 817.977,289.092L818.222,371.468L712.365,398.028C686.388,349.933 635.501,317.182 577.112,317.182C492.5,317.182 423.648,385.941 423.497,470.506L335.937,492.475Z" style="fill:rgb(255,0,136);fill-rule:nonzero;"/>
        </g>
        <g transform="matrix(0.0578919,0,0,0.0578919,169.843,327.687)">
            <path d="M311.073,589L311.073,754.992C311.073,779.434 291.264,799.254 266.811,799.254C242.37,799.254 222.55,779.434 222.55,754.992L222.55,611.21L311.073,589ZM222.55,520.924L222.55,402.179C203.143,397.495 188.678,380.12 188.678,359.279C188.678,338.438 203.143,321.074 222.55,316.379L222.55,244.859C222.55,151.064 298.857,74.746 392.653,74.746C438.09,74.746 480.804,92.44 512.943,124.569L512.943,124.569C530.225,141.85 530.225,169.872 512.943,187.175C495.672,204.456 467.639,204.467 450.348,187.175C434.933,171.75 414.443,163.269 392.653,163.269C347.669,163.269 311.073,199.875 311.073,244.859L311.073,315.017L384.275,315.017C408.727,315.017 428.547,334.837 428.547,359.279C428.547,383.731 408.727,403.541 384.275,403.541L311.073,403.541L311.073,498.714L222.55,520.924Z" style="fill:rgb(255,0,136);fill-rule:nonzero;"/>
        </g>
    </g>
</svg>
