<svg id="Livello_1" data-name="Livello 1" xmlns="http://www.w3.org/2000/svg" xmlns:xlink="http://www.w3.org/1999/xlink" viewBox="0 0 1366 603.37"><defs><linearGradient id="Sfumatura_senza_nome_2" x1="1.22" y1="769.09" x2="1.22" y2="768.48" gradientTransform="matrix(1920.62, 0, 0, -956.37, -1657.12, 735535.73)" gradientUnits="userSpaceOnUse"><stop offset="0" stop-color="#2f3944"/><stop offset="1" stop-color="#414d5a"/></linearGradient><linearGradient id="Sfumatura_senza_nome_4" x1="682.96" y1="411.51" x2="683.14" y2="296.94" gradientUnits="userSpaceOnUse"><stop offset="0" stop-color="#ff1577"/><stop offset="1" stop-color="#55beff"/></linearGradient></defs><path id="Tracciato_1" data-name="Tracciato 1" d="M0,383.48s117.94,135.31,347.29,183S741,441.62,994.75,459.88,1366,603,1366,603V-.37H0Z" transform="translate(0 0.37)" style="fill:url(#Sfumatura_senza_nome_2)"/><path d="M0,271.65c36.65-7.58,230.17,117.57,551.32,20s836.86,72.14,806.08,114.82c-35.93,49.84,0,93.57,0,93.57,43.28-.92-87.65,25.72-150.65-31.14s-293.69-58.59-345.85-45c-496,41.62-613.49-71-733.71-80.87C78,339,0,332.52,0,332.52Z" transform="translate(0 0.37)" style="fill:url(#Sfumatura_senza_nome_4)"/></svg>